<svg width="38" height="38" viewBox="0 0 38 38" fill="none" xmlns="http://www.w3.org/2000/svg">
<path d="M19 36.25C9.47309 36.25 1.75 28.5269 1.75 19C1.75 9.47309 9.47309 1.75 19 1.75C28.5269 1.75 36.25 9.47309 36.25 19C36.25 28.5269 28.5269 36.25 19 36.25Z" fill="#DA291C" stroke="#241F20" stroke-width="1.5"/>
<path d="M11.5 33.7139V4.28027L13 3.7207V34.2783L11.5 33.7139Z" fill="#241F20" stroke="#241F20"/>
<rect x="18.5" y="35.5" width="1.5" height="33" transform="rotate(180 18.5 35.5)" fill="#241F20" stroke="#241F20"/>
<path d="M6.07324 29.8594L6.00098 8.5127L7.5 6.50488V30.9756L6.07324 29.8594Z" fill="#241F20" stroke="#241F20"/>
<path d="M26.275 14.55L27.3359 17.8149H30.7688L27.9915 19.8327L29.0523 23.0976L26.275 21.0798L23.4978 23.0976L24.5586 19.8327L21.7813 17.8149H25.2142L26.275 14.55Z" fill="black"/>
<path d="M37.5 19C37.5 29.2173 29.2173 37.5 19 37.5C8.78273 37.5 0.5 29.2173 0.5 19C0.5 8.78273 8.78273 0.5 19 0.5C29.2173 0.5 37.5 8.78273 37.5 19Z" stroke="#F6F6F6"/>
</svg>
