<svg width="39" height="39" viewBox="0 0 39 39" fill="none" xmlns="http://www.w3.org/2000/svg">
<path d="M19.5 2.25C29.0269 2.25 36.75 9.97309 36.75 19.5C36.75 29.0269 29.0269 36.75 19.5 36.75C9.97309 36.75 2.25 29.0269 2.25 19.5C2.25 9.97309 9.97309 2.25 19.5 2.25Z" fill="#D5001A" stroke="#DFB254" stroke-width="1.5"/>
<rect x="34.7604" y="13.2553" width="1.3625" height="30.6418" transform="rotate(45 34.7604 13.2553)" fill="white" stroke="#DFB254"/>
<rect x="31.9116" y="7.75124" width="1.3625" height="34.1679" transform="rotate(45 31.9116 7.75124)" fill="white" stroke="#DFB254"/>
<path d="M36.6679 21.8005L21.5045 36.7913L19.7906 36.5952L36.3703 20.0155L36.6679 21.8005Z" fill="white" stroke="#DFB254"/>
<path d="M19.5 0.75C29.8553 0.75 38.25 9.14466 38.25 19.5C38.25 29.8553 29.8553 38.25 19.5 38.25C9.14466 38.25 0.75 29.8553 0.75 19.5C0.75 9.14466 9.14466 0.75 19.5 0.75Z" stroke="#F6F6F6" stroke-width="1.5"/>
</svg>
