<svg width="38" height="38" viewBox="0 0 38 38" fill="none" xmlns="http://www.w3.org/2000/svg">
<path d="M19.0691 1.81909C28.596 1.81909 36.3191 9.54218 36.3191 19.0691C36.3191 28.596 28.596 36.3191 19.0691 36.3191C9.54218 36.3191 1.81909 28.596 1.81909 19.0691C1.81909 9.54218 9.54218 1.81909 19.0691 1.81909Z" fill="#632E87" stroke="#754794" stroke-width="1.5"/>
<path d="M11.5691 3.56866V33.7591L7.56909 31.7591V6.71515C7.58997 6.69407 7.61339 6.67092 7.63843 6.64581C7.77305 6.5108 7.96579 6.32002 8.19702 6.09796C8.66101 5.65237 9.27484 5.0859 9.88452 4.59113C10.5104 4.08325 11.0779 3.69633 11.4597 3.55695C11.5033 3.54103 11.5384 3.53059 11.5662 3.52374C11.5668 3.53699 11.5691 3.55185 11.5691 3.56866Z" fill="#754794" stroke="#754794"/>
<rect x="17.0691" y="2.56909" width="3.725" height="33.65" fill="#754794" stroke="#754794"/>
<path d="M26.7615 3.55206C26.8854 3.56344 27.0747 3.62527 27.3279 3.76105C27.5737 3.89286 27.8464 4.07549 28.1296 4.29034C28.696 4.7199 29.2693 5.25 29.7058 5.67804C29.9229 5.89091 30.104 6.07646 30.2302 6.20831C30.2525 6.23153 30.273 6.25304 30.2917 6.27277L30.0701 30.8948C30.0451 30.9267 30.0163 30.9642 29.9832 31.0062C29.8618 31.1597 29.6886 31.377 29.4802 31.6302C29.0621 32.1383 28.5085 32.7868 27.9587 33.3587C27.4075 33.9321 26.9077 34.3749 26.5691 34.5589V4.06866C26.5691 3.719 26.6385 3.59373 26.6619 3.56476C26.6683 3.55683 26.6695 3.55673 26.6716 3.55597C26.6787 3.55353 26.7051 3.54691 26.7615 3.55206Z" fill="#754794" stroke="#754794"/>
<path d="M36.5691 19.0691C36.5691 28.7341 28.7341 36.5691 19.0691 36.5691C9.40411 36.5691 1.56909 28.7341 1.56909 19.0691C1.56909 9.40411 9.40411 1.56909 19.0691 1.56909C28.7341 1.56909 36.5691 9.40411 36.5691 19.0691Z" stroke="#A18F5E"/>
<path d="M19 37.5C8.78273 37.5 0.5 29.2173 0.5 19C0.5 8.78273 8.78273 0.5 19 0.5C29.2173 0.5 37.5 8.78273 37.5 19C37.5 29.2173 29.2173 37.5 19 37.5Z" stroke="#F6F6F6"/>
<path d="M22.5414 24.0992L18.8609 21.3257L15.0858 23.969L16.5862 19.6116L12.9057 16.8382L17.5135 16.9186L19.0139 12.5612L20.3613 16.9683L24.9691 17.0487L21.194 19.692L22.5414 24.0992Z" fill="#A18F5E"/>
</svg>
