<svg width="38" height="38" viewBox="0 0 38 38" fill="none" xmlns="http://www.w3.org/2000/svg">
<path d="M19 1.75C28.5269 1.75 36.25 9.47309 36.25 19C36.25 28.5269 28.5269 36.25 19 36.25C9.47309 36.25 1.75 28.5269 1.75 19C1.75 9.47309 9.47309 1.75 19 1.75Z" fill="#001FF9" stroke="#C79100" stroke-width="1.5"/>
<path d="M5 8.04816L7.5 6V32L5 30V8.04816Z" fill="white" fill-opacity="0.24"/>
<path d="M11 4L13.5 3V35.5L11 34.5V4Z" fill="white" fill-opacity="0.24"/>
<rect x="24" y="3" width="2.5" height="32" fill="white" fill-opacity="0.24"/>
<rect x="17.5" y="2" width="2.5" height="34.65" fill="white" fill-opacity="0.24"/>
<path d="M30.5 6L33 9V29L30.5 32.2V6Z" fill="white" fill-opacity="0.24"/>
<path d="M19 1.75C28.5269 1.75 36.25 9.47309 36.25 19C36.25 28.5269 28.5269 36.25 19 36.25C9.47309 36.25 1.75 28.5269 1.75 19C1.75 9.47309 9.47309 1.75 19 1.75Z" stroke="#001FF9" stroke-width="1.5"/>
<path d="M37.5 19C37.5 29.2173 29.2173 37.5 19 37.5C8.78273 37.5 0.5 29.2173 0.5 19C0.5 8.78273 8.78273 0.5 19 0.5C29.2173 0.5 37.5 8.78273 37.5 19Z" stroke="#F6F6F6"/>
</svg>
