<svg width="49" height="49" viewBox="0 0 49 49" fill="none" xmlns="http://www.w3.org/2000/svg">
<path d="M13.1425 39.0721C5.01936 32.8747 3.45822 21.2656 9.65559 13.1425C15.853 5.01939 27.462 3.45825 35.5851 9.65562C43.7083 15.853 45.2694 27.462 39.072 35.5852C32.8747 43.7083 21.2656 45.2694 13.1425 39.0721Z" fill="black" stroke="#F6F6F6"/>
<path d="M35.2818 10.0531C27.3783 4.02324 16.083 5.54218 10.0531 13.4458C4.02322 21.3493 5.54216 32.6446 13.4457 38.6745C13.4457 38.6745 18.9482 31.4628 24.9781 23.5592C31.008 15.6557 35.2818 10.0531 35.2818 10.0531Z" fill="#1E71B8"/>
<path d="M24 16.5C28.1421 16.5 31.5 19.8579 31.5 24C31.5 28.1421 28.1421 31.5 24 31.5C19.8579 31.5 16.5 28.1421 16.5 24C16.5 19.8579 19.8579 16.5 24 16.5Z" fill="white" stroke="white"/>
<path d="M20 21.5C22.5 20 24.5 23 27.5 21" stroke="black" stroke-linecap="round"/>
<path d="M20 23.5C22.5 22 24.5 25 27.5 23" stroke="black" stroke-linecap="round"/>
<path d="M20 25.5C22.5 24 24.5 27 27.5 25" stroke="black" stroke-linecap="round"/>
<path d="M20 27.5C22.5 26 24.5 29 27.5 27" stroke="black" stroke-linecap="round"/>
</svg>
