<svg width="38" height="38" viewBox="0 0 38 38" fill="none" xmlns="http://www.w3.org/2000/svg">
<path d="M19 1.75C28.5269 1.75 36.25 9.47309 36.25 19C36.25 28.5269 28.5269 36.25 19 36.25C9.47309 36.25 1.75 28.5269 1.75 19C1.75 9.47309 9.47309 1.75 19 1.75Z" fill="#272E61" stroke="#CB3524" stroke-width="1.5"/>
<path d="M24 2L27 3.56923V34.9538L24 36V2Z" fill="#CB3524"/>
<rect x="18.5" y="2.5" width="2" height="33" fill="#CB3524" stroke="#CB3524"/>
<path d="M30 6L33 8.6V27.84L30 32V6Z" fill="#CB3524"/>
<path d="M6.82395 20.1905C6.74584 20.1332 6.78669 20.0094 6.88356 20.0099L7.83802 20.0143C7.88135 20.0145 7.91987 19.9867 7.93345 19.9456L8.23257 19.0392C8.26292 18.9472 8.39326 18.9478 8.42277 19.0401L8.71355 19.9492C8.72675 19.9904 8.76502 20.0185 8.80834 20.0187L9.76281 20.0231C9.85968 20.0235 9.89939 20.1477 9.82075 20.2043L9.04599 20.7617C9.01083 20.787 8.99595 20.8321 9.00915 20.8734L9.29993 21.7825C9.32944 21.8748 9.22364 21.9509 9.14553 21.8936L8.37593 21.329C8.341 21.3034 8.29354 21.3032 8.25837 21.3285L7.48361 21.8859C7.40498 21.9425 7.29989 21.8654 7.33024 21.7734L7.62936 20.867C7.64294 20.8259 7.62848 20.7807 7.59355 20.7551L6.82395 20.1905Z" fill="white"/>
<path d="M9.25341 15.8415C9.1753 15.7842 9.21615 15.6604 9.31302 15.6608L10.2675 15.6652C10.3108 15.6654 10.3493 15.6377 10.3629 15.5966L10.662 14.6902C10.6924 14.5982 10.8227 14.5988 10.8522 14.691L11.143 15.6001C11.1562 15.6414 11.1945 15.6695 11.2378 15.6697L12.1923 15.6741C12.2891 15.6745 12.3288 15.7987 12.2502 15.8552L11.4755 16.4127C11.4403 16.438 11.4254 16.4831 11.4386 16.5243L11.7294 17.4334C11.7589 17.5257 11.6531 17.6018 11.575 17.5445L10.8054 16.98C10.7705 16.9543 10.723 16.9541 10.6878 16.9794L9.91307 17.5369C9.83444 17.5935 9.72935 17.5164 9.75971 17.4244L10.0588 16.518C10.0724 16.4769 10.0579 16.4317 10.023 16.406L9.25341 15.8415Z" fill="white"/>
<path d="M11.8239 20.1905C11.7458 20.1332 11.7867 20.0094 11.8836 20.0099L12.838 20.0143C12.8813 20.0145 12.9199 19.9867 12.9334 19.9456L13.2326 19.0392C13.2629 18.9472 13.3933 18.9478 13.4228 19.0401L13.7136 19.9492C13.7267 19.9904 13.765 20.0185 13.8083 20.0187L14.7628 20.0231C14.8597 20.0235 14.8994 20.1477 14.8208 20.2043L14.046 20.7617C14.0108 20.787 13.996 20.8321 14.0092 20.8734L14.2999 21.7825C14.3294 21.8748 14.2236 21.9509 14.1455 21.8936L13.3759 21.329C13.341 21.3034 13.2935 21.3032 13.2584 21.3285L12.4836 21.8859C12.405 21.9425 12.2999 21.8654 12.3302 21.7734L12.6294 20.867C12.6429 20.8259 12.6285 20.7807 12.5936 20.7551L11.8239 20.1905Z" fill="white"/>
<path d="M37.5 19C37.5 29.2173 29.2173 37.5 19 37.5C8.78273 37.5 0.5 29.2173 0.5 19C0.5 8.78273 8.78273 0.5 19 0.5C29.2173 0.5 37.5 8.78273 37.5 19Z" stroke="#F6F6F6"/>
</svg>
