<svg width="38" height="38" viewBox="0 0 38 38" fill="none" xmlns="http://www.w3.org/2000/svg">
<path d="M19 1.5C28.665 1.5 36.5 9.33502 36.5 19C36.5 28.665 28.665 36.5 19 36.5C9.33502 36.5 1.5 28.665 1.5 19C1.5 9.33502 9.33502 1.5 19 1.5Z" fill="#BA3733" stroke="#FFD42E"/>
<path d="M19.4996 1.50684C28.9336 1.77131 36.4996 9.50211 36.4996 19C36.4996 28.4979 28.9336 36.2277 19.4996 36.4922V1.50684Z" fill="white" stroke="#FFD42E"/>
<path d="M18.9846 11.75C21.1466 11.75 22.1601 11.763 23.0608 12.585C23.521 13.005 23.9629 13.6485 24.4905 14.6533C25.0172 15.6565 25.6191 16.9986 26.4065 18.7998C26.601 19.2449 26.601 19.7551 26.4065 20.2002C25.6191 22.0014 25.0172 23.3435 24.4905 24.3467C23.9629 25.3515 23.521 25.995 23.0608 26.415C22.1601 27.237 21.1466 27.25 18.9846 27.25C16.8232 27.25 15.8166 27.2369 14.9202 26.416C14.4619 25.9962 14.0217 25.3528 13.4934 24.3486C12.966 23.3461 12.3618 22.0056 11.5686 20.2061C11.371 19.7578 11.371 19.2422 11.5686 18.7939C12.3618 16.9944 12.966 15.6539 13.4934 14.6514C14.0217 13.6472 14.4619 13.0038 14.9202 12.584C15.8166 11.7631 16.8232 11.75 18.9846 11.75Z" fill="#46714D" stroke="black" stroke-width="0.5"/>
<path d="M37.5 19C37.5 29.2173 29.2173 37.5 19 37.5C8.78273 37.5 0.5 29.2173 0.5 19C0.5 8.78273 8.78273 0.5 19 0.5C29.2173 0.5 37.5 8.78273 37.5 19Z" stroke="#F6F6F6"/>
</svg>
