<svg width="40" height="40" viewBox="0 0 40 40" fill="none" xmlns="http://www.w3.org/2000/svg">
<path d="M20 3C29.3888 3 37 10.6112 37 20C37 29.3888 29.3888 37 20 37C10.6112 37 3 29.3888 3 20C3 10.6112 10.6112 3 20 3Z" fill="#004EA2" stroke="white" stroke-width="2"/>
<path d="M22 3.5V36.5H18V3.5H22Z" fill="white" stroke="white"/>
<mask id="path-3-inside-1_1_364" fill="white">
<path d="M2.53748 22.25L2.53748 17.525H37.1875V22.25L2.53748 22.25Z"/>
</mask>
<path d="M2.53748 22.25L2.53748 17.525H37.1875V22.25L2.53748 22.25Z" fill="white"/>
<path d="M37.1875 22.25V21.25L2.53748 21.25V22.25V23.25L37.1875 23.25V22.25Z" fill="white" mask="url(#path-3-inside-1_1_364)"/>
<path d="M20 1C30.4934 1 39 9.50659 39 20C39 30.4934 30.4934 39 20 39C9.50659 39 1 30.4934 1 20C1 9.50659 9.50659 1 20 1Z" stroke="#F6F6F6" stroke-width="2"/>
<path d="M38.5 20C38.5 30.2173 30.2173 38.5 20 38.5C9.78273 38.5 1.5 30.2173 1.5 20C1.5 9.78273 9.78273 1.5 20 1.5C30.2173 1.5 38.5 9.78273 38.5 20Z" stroke="white"/>
<path d="M20 14C23.3137 14 26 16.6863 26 20C26 23.3137 23.3137 26 20 26C16.6863 26 14 23.3137 14 20C14 16.6863 16.6863 14 20 14Z" fill="#004EA2" stroke="white" stroke-width="4"/>
</svg>
