<svg width="40" height="40" viewBox="0 0 40 40" fill="none" xmlns="http://www.w3.org/2000/svg">
<path d="M20 3C29.3888 3 37 10.6112 37 20C37 29.3888 29.3888 37 20 37C10.6112 37 3 29.3888 3 20C3 10.6112 10.6112 3 20 3Z" fill="#004D98" stroke="#A50044" stroke-width="2"/>
<path d="M12.5247 34.2324L8.80005 32.2021V7.07422L12.5247 5.71484V34.2324Z" fill="#A50044" stroke="#A50044"/>
<mask id="path-3-inside-1_1_343" fill="white">
<path d="M17.5 3H22.225V37.65H17.5V3Z"/>
</mask>
<path d="M17.5 3H22.225V37.65H17.5V3Z" fill="#A50044"/>
<path d="M17.5 37.65H18.5V3H17.5H16.5V37.65H17.5Z" fill="#A50044" mask="url(#path-3-inside-1_1_343)"/>
<path d="M31.5 8.31543V31.0283L27.5 34.834V5.88867L31.5 8.31543Z" fill="#A50044" stroke="#A50044"/>
<path d="M20 1C30.4934 1 39 9.50659 39 20C39 30.4934 30.4934 39 20 39C9.50659 39 1 30.4934 1 20C1 9.50659 9.50659 1 20 1Z" stroke="#F6F6F6" stroke-width="2"/>
<path d="M38.5 20C38.5 30.2173 30.2173 38.5 20 38.5C9.78273 38.5 1.5 30.2173 1.5 20C1.5 9.78273 9.78273 1.5 20 1.5C30.2173 1.5 38.5 9.78273 38.5 20Z" stroke="#EDBB00"/>
</svg>
