<svg width="38" height="38" viewBox="0 0 38 38" fill="none" xmlns="http://www.w3.org/2000/svg">
<path d="M19.0691 36.9309C29.0102 36.9309 37.0691 28.8721 37.0691 18.9309C37.0691 8.98981 29.0102 0.930939 19.0691 0.930939C9.12797 0.930939 1.06909 8.98981 1.06909 18.9309C1.06909 28.8721 9.12797 36.9309 19.0691 36.9309Z" fill="#E32221"/>
<path d="M19.0691 36.9309C29.0102 36.9309 37.0691 28.8721 37.0691 18.9309C37.0691 8.98981 29.0102 0.930939 19.0691 0.930939C19.0691 0.930939 19.0687 10.0021 19.0687 19.9432C19.0687 29.8843 19.0691 36.9309 19.0691 36.9309Z" fill="black"/>
<path d="M9.55322 15.3653V22.3672H8.55225V16.3663H7.35107V15.3653H9.55322ZM16.6577 21.3663C16.6577 21.503 16.6317 21.6332 16.5796 21.7569C16.5275 21.8773 16.4559 21.9831 16.3647 22.0743C16.2736 22.1654 16.1662 22.237 16.0425 22.2891C15.922 22.3412 15.7935 22.3672 15.6567 22.3672H12.4585C12.3218 22.3672 12.1916 22.3412 12.0679 22.2891C11.9474 22.237 11.8416 22.1654 11.7505 22.0743C11.6593 21.9831 11.5877 21.8773 11.5356 21.7569C11.4836 21.6332 11.4575 21.503 11.4575 21.3663V20.4678H12.4585V21.3663H15.6567V19.3692H12.4585C12.3218 19.3692 12.1916 19.3432 12.0679 19.2911C11.9474 19.2357 11.8416 19.1641 11.7505 19.0762C11.6593 18.9851 11.5877 18.8793 11.5356 18.7588C11.4836 18.6352 11.4575 18.5049 11.4575 18.3682V16.3663C11.4575 16.2296 11.4836 16.101 11.5356 15.9805C11.5877 15.8568 11.6593 15.751 11.7505 15.6631C11.8416 15.572 11.9474 15.5004 12.0679 15.4483C12.1916 15.393 12.3218 15.3653 12.4585 15.3653H15.6567C15.7935 15.3653 15.922 15.393 16.0425 15.4483C16.1662 15.5004 16.2736 15.572 16.3647 15.6631C16.4559 15.751 16.5275 15.8568 16.5796 15.9805C16.6317 16.101 16.6577 16.2296 16.6577 16.3663V21.3663ZM15.6567 18.3682V16.3663H12.4585V18.3682H15.6567ZM23.9624 21.3663C23.9624 21.503 23.9364 21.6332 23.8843 21.7569C23.8322 21.8773 23.7606 21.9831 23.6694 22.0743C23.5783 22.1654 23.4709 22.237 23.3472 22.2891C23.2267 22.3412 23.0981 22.3672 22.9614 22.3672H19.4604C19.3237 22.3672 19.1935 22.3412 19.0698 22.2891C18.9494 22.237 18.8436 22.1654 18.7524 22.0743C18.6613 21.9831 18.5897 21.8773 18.5376 21.7569C18.4855 21.6332 18.4595 21.503 18.4595 21.3663V16.3663C18.4595 16.2296 18.4855 16.101 18.5376 15.9805C18.5897 15.8568 18.6613 15.751 18.7524 15.6631C18.8436 15.572 18.9494 15.5004 19.0698 15.4483C19.1935 15.393 19.3237 15.3653 19.4604 15.3653H22.9614C23.0981 15.3653 23.2267 15.393 23.3472 15.4483C23.4709 15.5004 23.5783 15.572 23.6694 15.6631C23.7606 15.751 23.8322 15.8568 23.8843 15.9805C23.9364 16.101 23.9624 16.2296 23.9624 16.3663V21.3663ZM19.4604 16.3663V21.3663H22.9614V16.3663H19.4604ZM25.0659 19.9551L28.5181 15.3653H29.6948V19.9551H30.6372V20.9171H29.6948V22.3672H28.6938V20.9171H25.0659V19.9551ZM28.6938 19.9551V16.5762L26.1548 19.9551H28.6938Z" fill="white"/>
<path d="M37.5 19C37.5 29.2173 29.2173 37.5 19 37.5C8.78273 37.5 0.5 29.2173 0.5 19C0.5 8.78273 8.78273 0.5 19 0.5C29.2173 0.5 37.5 8.78273 37.5 19Z" stroke="#F6F6F6"/>
</svg>
