<svg width="38" height="38" viewBox="0 0 38 38" fill="none" xmlns="http://www.w3.org/2000/svg">
<path d="M19 36.25C9.47309 36.25 1.75 28.5269 1.75 19C1.75 9.47309 9.47309 1.75 19 1.75C28.5269 1.75 36.25 9.47309 36.25 19C36.25 28.5269 28.5269 36.25 19 36.25Z" fill="#1A2F48" stroke="#A21C26" stroke-width="1.5"/>
<path d="M12 33.7139V4.28027L13.5 3.7207V34.2783L12 33.7139Z" fill="#A21C26" stroke="#A21C26"/>
<rect x="19.5" y="35.5" width="1.5" height="33" transform="rotate(180 19.5 35.5)" fill="#A21C26" stroke="#A21C26"/>
<path d="M6.07324 29.8594L6.00098 8.5127L7.5 6.50488V30.9756L6.07324 29.8594Z" fill="#A21C26" stroke="#A21C26"/>
<path d="M0.5 19C0.5 8.78273 8.78273 0.5 19 0.5C29.2173 0.5 37.5 8.78273 37.5 19C37.5 29.2173 29.2173 37.5 19 37.5C8.78273 37.5 0.5 29.2173 0.5 19Z" stroke="#F6F6F6"/>
<path d="M19.5 1.50684C28.9337 1.77131 36.5 9.50211 36.5 19C36.5 28.4979 28.9337 36.2277 19.5 36.4922V1.50684Z" fill="white" stroke="#1A2F48"/>
<rect x="28" y="26" width="2" height="14" transform="rotate(180 28 26)" fill="#A21C26"/>
<rect x="31" y="18" width="2" height="8" transform="rotate(90 31 18)" fill="#A21C26"/>
</svg>
