<svg width="36" height="36" viewBox="0 0 36 36" fill="none" xmlns="http://www.w3.org/2000/svg">
<path d="M35 18C35 27.3888 27.3888 35 18 35C8.61116 35 1 27.3888 1 18C1 8.61116 8.61116 1 18 1C27.3888 1 35 8.61116 35 18Z" fill="black" stroke="#D71920" stroke-width="2"/>
<path d="M30.5062 7L33 11H3L4.57107 7L30.5062 7Z" fill="#D71920"/>
<rect x="34" y="16" width="4" height="33" transform="rotate(90 34 16)" fill="#D71920"/>
<path d="M33 25L32 29H4L3 25H33Z" fill="#D71920"/>
<path d="M18 0.5C27.665 0.5 35.5 8.33502 35.5 18C35.5 27.665 27.665 35.5 18 35.5C8.33502 35.5 0.5 27.665 0.5 18C0.5 8.33502 8.33502 0.5 18 0.5Z" stroke="#F6F6F6"/>
</svg>
