<svg width="38" height="38" viewBox="0 0 38 38" fill="none" xmlns="http://www.w3.org/2000/svg">
<path d="M1.06909 19.0691C1.06909 29.0102 9.12797 37.0691 19.0691 37.0691C29.0102 37.0691 37.0691 29.0102 37.0691 19.0691C37.0691 9.12797 29.0102 1.06909 19.0691 1.06909C9.12797 1.06909 1.06909 9.12797 1.06909 19.0691Z" fill="#ED1C24"/>
<path d="M1.06909 19.0691C1.06909 29.0102 9.12797 37.0691 19.0691 37.0691C29.0102 37.0691 37.0691 29.0102 37.0691 19.0691C37.0691 19.0691 27.9979 19.0687 18.0568 19.0687C8.11569 19.0687 1.06909 19.0691 1.06909 19.0691Z" fill="black" fill-opacity="0.19"/>
<path d="M9.95909 22.7191C9.47243 22.7191 9.03243 22.6591 8.63909 22.5391C8.24576 22.4191 7.95576 22.3024 7.76909 22.1891L7.91909 20.6791L8.56909 20.7391V21.1991C8.56909 21.2324 8.57243 21.2891 8.57909 21.3691C8.59243 21.4424 8.60576 21.5258 8.61909 21.6191C8.63243 21.7058 8.64576 21.7891 8.65909 21.8691C8.67909 21.9424 8.69576 21.9991 8.70909 22.0391L8.52909 21.8091C8.70243 21.8958 8.91576 21.9758 9.16909 22.0491C9.42909 22.1158 9.70243 22.1491 9.98909 22.1491C10.4024 22.1491 10.7291 22.0391 10.9691 21.8191C11.2091 21.5924 11.3291 21.2758 11.3291 20.8691C11.3291 20.5891 11.2458 20.3558 11.0791 20.1691C10.9124 19.9758 10.6991 19.8058 10.4391 19.6591C10.1791 19.5058 9.90243 19.3591 9.60909 19.2191C9.32243 19.0791 9.04909 18.9224 8.78909 18.7491C8.52909 18.5691 8.31576 18.3558 8.14909 18.1091C7.98243 17.8624 7.89909 17.5624 7.89909 17.2091C7.89909 16.8091 7.99243 16.4724 8.17909 16.1991C8.37243 15.9258 8.63243 15.7191 8.95909 15.5791C9.28576 15.4391 9.65243 15.3691 10.0591 15.3691C10.3858 15.3691 10.7224 15.4024 11.0691 15.4691C11.4158 15.5358 11.7491 15.6091 12.0691 15.6891L11.9291 17.1691L11.3491 17.0991V16.6791C11.3491 16.6324 11.3391 16.5624 11.3191 16.4691C11.2991 16.3691 11.2758 16.2658 11.2491 16.1591C11.2224 16.0458 11.1958 15.9458 11.1691 15.8591L11.4491 16.2291C11.1624 16.0758 10.9191 15.9824 10.7191 15.9491C10.5191 15.9091 10.2824 15.8891 10.0091 15.8891C9.70243 15.8891 9.43243 15.9858 9.19909 16.1791C8.97243 16.3658 8.85909 16.6458 8.85909 17.0191C8.85909 17.2858 8.94243 17.5124 9.10909 17.6991C9.27576 17.8791 9.49243 18.0458 9.75909 18.1991C10.0258 18.3458 10.3058 18.4924 10.5991 18.6391C10.8924 18.7858 11.1724 18.9524 11.4391 19.1391C11.7058 19.3258 11.9224 19.5491 12.0891 19.8091C12.2558 20.0691 12.3391 20.3891 12.3391 20.7691C12.3391 21.2091 12.2324 21.5724 12.0191 21.8591C11.8058 22.1458 11.5191 22.3624 11.1591 22.5091C10.7991 22.6491 10.3991 22.7191 9.95909 22.7191ZM13.6166 22.6191L13.5666 22.1291L14.7066 21.8991L14.3266 22.3291C14.3399 22.2424 14.3566 22.1258 14.3766 21.9791C14.3966 21.8324 14.4133 21.6891 14.4266 21.5491C14.4466 21.4024 14.4566 21.2924 14.4566 21.2191V16.8691C14.4566 16.8158 14.4499 16.7458 14.4366 16.6591C14.4299 16.5658 14.4199 16.4691 14.4066 16.3691C14.3933 16.2624 14.3799 16.1658 14.3666 16.0791C14.3533 15.9858 14.3399 15.9158 14.3266 15.8691L14.5666 16.1391L13.5866 15.9891L13.6366 15.4691C13.7633 15.4758 13.9033 15.4824 14.0566 15.4891C14.2099 15.4958 14.3533 15.5024 14.4866 15.5091C14.6266 15.5158 14.7266 15.5191 14.7866 15.5191C14.9533 15.5191 15.1333 15.5158 15.3266 15.5091C15.5266 15.4958 15.7233 15.4858 15.9166 15.4791C16.1099 15.4724 16.2899 15.4691 16.4566 15.4691C16.7966 15.4691 17.1066 15.5358 17.3866 15.6691C17.6733 15.8024 17.8999 15.9924 18.0666 16.2391C18.2399 16.4858 18.3266 16.7858 18.3266 17.1391C18.3266 17.4591 18.2566 17.7458 18.1166 17.9991C17.9766 18.2524 17.7833 18.4591 17.5366 18.6191C17.2966 18.7724 17.0199 18.8724 16.7066 18.9191L16.9366 18.5291V19.2791L16.6866 18.9091C17.0599 18.9291 17.3933 19.0158 17.6866 19.1691C17.9799 19.3158 18.2099 19.5224 18.3766 19.7891C18.5499 20.0491 18.6366 20.3658 18.6366 20.7391C18.6366 21.1124 18.5466 21.4424 18.3666 21.7291C18.1933 22.0091 17.9533 22.2258 17.6466 22.3791C17.3466 22.5324 17.0066 22.6091 16.6266 22.6091C16.3799 22.6091 16.1033 22.6024 15.7966 22.5891C15.4899 22.5758 15.2099 22.5691 14.9566 22.5691C14.8766 22.5691 14.7599 22.5724 14.6066 22.5791C14.4533 22.5858 14.2866 22.5924 14.1066 22.5991C13.9333 22.6058 13.7699 22.6124 13.6166 22.6191ZM15.4266 22.3691L15.2166 21.9891C15.3433 21.9958 15.5066 22.0091 15.7066 22.0291C15.9066 22.0424 16.1099 22.0491 16.3166 22.0491C16.7166 22.0491 17.0399 21.9324 17.2866 21.6991C17.5399 21.4591 17.6666 21.1158 17.6666 20.6691C17.6666 20.3291 17.5866 20.0491 17.4266 19.8291C17.2733 19.6091 17.0666 19.4491 16.8066 19.3491C16.5466 19.2424 16.2666 19.1891 15.9666 19.1891H15.8466L15.9166 18.6391H15.9966C16.3966 18.6391 16.7366 18.5224 17.0166 18.2891C17.2966 18.0491 17.4366 17.7024 17.4366 17.2491C17.4366 16.8691 17.3266 16.5658 17.1066 16.3391C16.8866 16.1058 16.5999 15.9891 16.2466 15.9891C16.0599 15.9891 15.8733 15.9891 15.6866 15.9891C15.5066 15.9891 15.3433 15.9958 15.1966 16.0091L15.4266 15.7591C15.4199 15.8058 15.4066 15.9091 15.3866 16.0691C15.3733 16.2291 15.3566 16.4091 15.3366 16.6091C15.3233 16.8024 15.3166 16.9891 15.3166 17.1691V20.9191C15.3166 21.0991 15.3199 21.2858 15.3266 21.4791C15.3399 21.6724 15.3566 21.8491 15.3766 22.0091C15.3966 22.1691 15.4133 22.2891 15.4266 22.3691ZM24.0957 22.5991L22.8757 22.5691H20.1657L20.0257 21.8691C20.5923 21.2958 21.0623 20.8124 21.4357 20.4191C21.8157 20.0191 22.119 19.6824 22.3457 19.4091C22.579 19.1358 22.7523 18.9058 22.8657 18.7191C22.9857 18.5258 23.0657 18.3524 23.1057 18.1991C23.1457 18.0391 23.1657 17.8724 23.1657 17.6991C23.1657 17.3391 23.0557 17.0458 22.8357 16.8191C22.6223 16.5858 22.3423 16.4691 21.9957 16.4691C21.7623 16.4691 21.5523 16.5024 21.3657 16.5691C21.1857 16.6291 20.979 16.7391 20.7457 16.8991L21.0457 16.4191C21.0257 16.5124 20.999 16.6191 20.9657 16.7391C20.939 16.8591 20.9157 16.9691 20.8957 17.0691C20.8823 17.1624 20.8757 17.2291 20.8757 17.2691L20.8957 17.7291L20.3757 17.7491L20.2357 16.3091C20.5757 16.1758 20.879 16.0824 21.1457 16.0291C21.419 15.9758 21.729 15.9491 22.0757 15.9491C22.689 15.9491 23.169 16.0891 23.5157 16.3691C23.869 16.6491 24.0457 17.0424 24.0457 17.5491C24.0457 17.8624 23.9923 18.1624 23.8857 18.4491C23.779 18.7358 23.5957 19.0458 23.3357 19.3791C23.0757 19.7124 22.719 20.1024 22.2657 20.5491C21.819 20.9958 21.249 21.5358 20.5557 22.1691L20.5357 21.8791H22.8157C22.8757 21.8791 22.9723 21.8724 23.1057 21.8591C23.2457 21.8458 23.3957 21.8324 23.5557 21.8191C23.7157 21.7991 23.859 21.7791 23.9857 21.7591L23.5257 22.1191C23.5723 22.0058 23.619 21.8958 23.6657 21.7891C23.7123 21.6824 23.7557 21.5758 23.7957 21.4691L23.8457 20.9891L24.3657 21.0291L24.2757 22.3991L24.0957 22.5991ZM26.225 23.6391L26.095 23.1391C26.7617 22.9258 27.3117 22.6491 27.745 22.3091C28.185 21.9691 28.5284 21.5924 28.775 21.1791C29.0284 20.7591 29.205 20.3258 29.305 19.8791C29.4117 19.4258 29.465 18.9858 29.465 18.5591C29.465 18.2324 29.415 17.9091 29.315 17.5891C29.215 17.2691 29.0584 17.0058 28.845 16.7991C28.6384 16.5858 28.3684 16.4791 28.035 16.4791C27.755 16.4791 27.5217 16.5524 27.335 16.6991C27.1484 16.8458 27.0084 17.0424 26.915 17.2891C26.8217 17.5291 26.775 17.7891 26.775 18.0691C26.775 18.3224 26.8284 18.5591 26.935 18.7791C27.0484 18.9991 27.2017 19.1758 27.395 19.3091C27.595 19.4424 27.825 19.5091 28.085 19.5091C28.1984 19.5091 28.3084 19.5091 28.415 19.5091C28.5217 19.5024 28.6284 19.4924 28.735 19.4791L28.805 19.9191C28.6984 19.9658 28.575 20.0058 28.435 20.0391C28.3017 20.0658 28.1617 20.0791 28.015 20.0791C27.6084 20.0791 27.2417 19.9991 26.915 19.8391C26.595 19.6724 26.3417 19.4391 26.155 19.1391C25.9684 18.8324 25.875 18.4758 25.875 18.0691C25.875 17.6558 25.9717 17.2891 26.165 16.9691C26.3584 16.6491 26.6217 16.3991 26.955 16.2191C27.2884 16.0391 27.6584 15.9491 28.065 15.9491C28.5717 15.9491 28.995 16.0624 29.335 16.2891C29.6817 16.5091 29.9417 16.8158 30.115 17.2091C30.295 17.6024 30.385 18.0524 30.385 18.5591C30.385 19.0991 30.305 19.6391 30.145 20.1791C29.985 20.7124 29.7384 21.2124 29.405 21.6791C29.0717 22.1458 28.6417 22.5491 28.115 22.8891C27.5884 23.2291 26.9584 23.4791 26.225 23.6391Z" fill="white"/>
<path d="M19 37.5C8.78273 37.5 0.5 29.2173 0.5 19C0.5 8.78273 8.78273 0.5 19 0.5C29.2173 0.5 37.5 8.78273 37.5 19C37.5 29.2173 29.2173 37.5 19 37.5Z" stroke="#F6F6F6"/>
</svg>
