<svg width="38" height="38" viewBox="0 0 38 38" fill="none" xmlns="http://www.w3.org/2000/svg">
<path d="M19 2C28.3888 2 36 9.61116 36 19C36 28.3888 28.3888 36 19 36C9.61116 36 2 28.3888 2 19C2 9.61116 9.61116 2 19 2Z" fill="#0A56A3" stroke="white" stroke-width="2"/>
<path d="M19 1.25C28.8031 1.25 36.75 9.19695 36.75 19C36.75 28.8031 28.8031 36.75 19 36.75C9.19695 36.75 1.25 28.8031 1.25 19C1.25 9.19695 9.19695 1.25 19 1.25Z" stroke="#0A56A3" stroke-width="0.5"/>
<path d="M24.75 19.15L27.9 19.15" stroke="#FFCD00" stroke-linecap="round"/>
<path d="M12.15 22.3H24.75" stroke="white" stroke-linecap="round"/>
<path d="M9 19.15H21.6" stroke="white" stroke-linecap="round"/>
<path d="M12.15 16H24.75" stroke="white" stroke-linecap="round"/>
<path d="M37.5 19C37.5 29.2173 29.2173 37.5 19 37.5C8.78273 37.5 0.5 29.2173 0.5 19C0.5 8.78273 8.78273 0.5 19 0.5C29.2173 0.5 37.5 8.78273 37.5 19Z" stroke="#F6F6F6"/>
</svg>
