<svg width="38" height="38" viewBox="0 0 38 38" fill="none" xmlns="http://www.w3.org/2000/svg">
<path d="M0.5 19C0.5 8.78273 8.78273 0.5 19 0.5C29.2173 0.5 37.5 8.78273 37.5 19C37.5 29.2173 29.2173 37.5 19 37.5C8.78273 37.5 0.5 29.2173 0.5 19Z" fill="#6C1D45" stroke="#F6F6F6"/>
<path d="M37 19C37 9.05886 28.9411 0.999989 19 0.999989C9.05887 0.999989 1 9.05886 1 19C1 19 10.0712 19.0004 20.0123 19.0004C29.9534 19.0004 37 19 37 19Z" fill="#99D6EA"/>
<rect x="14" y="14" width="3" height="3" fill="#F6F6F6"/>
<rect x="16" y="12" width="3" height="3" fill="#F6F6F6"/>
<rect x="19.0712" y="10" width="3" height="3" transform="rotate(43.6602 19.0712 10)" fill="#F6F6F6"/>
<rect x="6" y="22" width="3" height="3" fill="#F6F6F6"/>
<rect x="8" y="20" width="3" height="3" fill="#F6F6F6"/>
<rect x="10" y="18" width="3" height="3" fill="#F6F6F6"/>
<rect x="12" y="16" width="3" height="3" fill="#F6F6F6"/>
<rect x="31.9312" y="22.0684" width="3" height="3" transform="rotate(90 31.9312 22.0684)" fill="#F6F6F6"/>
<rect x="22" y="12" width="3" height="3" transform="rotate(90 22 12)" fill="#F6F6F6"/>
<rect x="23.9863" y="14.0137" width="3" height="3" transform="rotate(90 23.9863 14.0137)" fill="#F6F6F6"/>
<rect x="25.9724" y="16.0273" width="3" height="3" transform="rotate(90 25.9724 16.0273)" fill="#F6F6F6"/>
<rect x="27.9587" y="18.041" width="3" height="3" transform="rotate(90 27.9587 18.041)" fill="#F6F6F6"/>
<rect x="29.9448" y="20.0547" width="3" height="3" transform="rotate(90 29.9448 20.0547)" fill="#F6F6F6"/>
</svg>
