<svg width="40" height="40" viewBox="0 0 40 40" fill="none" xmlns="http://www.w3.org/2000/svg">
<path d="M20 38C29.9411 38 38 29.9411 38 20C38 10.0589 29.9411 2 20 2C10.0589 2 2 10.0589 2 20C2 29.9411 10.0589 38 20 38Z" fill="white"/>
<path d="M5.94043 19.2474C5.596 19.0323 5.74828 18.5005 6.1543 18.5004H34.0967C34.4936 18.5004 34.6254 19.0319 34.2744 19.2172L34.1602 19.2777C33.2051 19.782 33.2314 21.159 34.2051 21.6263C34.5068 21.7716 34.4034 22.225 34.0684 22.225L6.15723 22.225L6.0957 22.2201C5.80115 22.1696 5.713 21.7598 5.99219 21.601C6.87096 21.102 6.89714 19.8453 6.04004 19.3099L5.94043 19.2474Z" fill="#E5254E" stroke="#E5254E"/>
<path d="M20.9775 5.94043C21.1927 5.596 21.7245 5.74828 21.7246 6.1543V34.0967C21.7246 34.4936 21.1931 34.6254 21.0078 34.2744L20.9473 34.1602C20.443 33.2051 19.066 33.2314 18.5986 34.2051C18.4533 34.5068 18 34.4034 18 34.0684V6.15723L18.0049 6.0957C18.0554 5.80115 18.4652 5.713 18.624 5.99219C19.123 6.87096 20.3797 6.89714 20.915 6.04004L20.9775 5.94043Z" fill="#E5254E" stroke="#E5254E"/>
<path d="M20 1C30.4934 1 39 9.50659 39 20C39 30.4934 30.4934 39 20 39C9.50659 39 1 30.4934 1 20C1 9.50659 9.50659 1 20 1Z" stroke="#F6F6F6" stroke-width="2"/>
<path d="M38.5 20C38.5 30.2173 30.2173 38.5 20 38.5C9.78273 38.5 1.5 30.2173 1.5 20C1.5 9.78273 9.78273 1.5 20 1.5C30.2173 1.5 38.5 9.78273 38.5 20Z" stroke="#B19221"/>
<path d="M20 14C23.3137 14 26 16.6863 26 20C26 23.3137 23.3137 26 20 26C16.6863 26 14 23.3137 14 20C14 16.6863 16.6863 14 20 14Z" fill="white" stroke="#8AC3EE" stroke-width="4"/>
</svg>
