<svg width="38" height="38" viewBox="0 0 38 38" fill="none" xmlns="http://www.w3.org/2000/svg">
<path d="M19 2C28.3888 2 36 9.61116 36 19C36 28.3888 28.3888 36 19 36C9.61116 36 2 28.3888 2 19C2 9.61116 9.61116 2 19 2Z" fill="#1B458F" stroke="#C4122E" stroke-width="2"/>
<path d="M11.5 33.3594L8.5 32.6094V5.39062L11.5 4.64062V33.3594Z" fill="#C4122E" stroke="#C4122E"/>
<rect x="17.5" y="2.5" width="3" height="33" fill="#C4122E" stroke="#C4122E"/>
<path d="M29.5 5.8457V31.6904L26.5 33.1904V4.7207L29.5 5.8457Z" fill="#C4122E" stroke="#C4122E"/>
<path d="M37.5 19C37.5 29.2173 29.2173 37.5 19 37.5C8.78273 37.5 0.5 29.2173 0.5 19C0.5 8.78273 8.78273 0.5 19 0.5C29.2173 0.5 37.5 8.78273 37.5 19Z" stroke="#F6F6F6"/>
</svg>
