<svg width="38" height="38" viewBox="0 0 38 38" fill="none" xmlns="http://www.w3.org/2000/svg">
<path d="M37.5 19C37.5 29.2173 29.2173 37.5 19 37.5C8.78273 37.5 0.5 29.2173 0.5 19C0.5 8.78273 8.78273 0.5 19 0.5C29.2173 0.5 37.5 8.78273 37.5 19Z" fill="#E1000F" stroke="#F6F6F6"/>
<path d="M1 19C1 28.9411 9.05887 37 19 37C28.9411 37 37 28.9411 37 19C37 19 27.9288 18.9996 17.9877 18.9996C8.04659 18.9996 1 19 1 19Z" fill="white"/>
<path d="M15.5477 13L17.7158 18H20.6667L22.7038 13L24 18L29 14.6667L25.6667 23L20.6667 21.3333H19H17.3333L12.3333 23L9 14.6667L14.3825 18L15.5477 13Z" fill="black"/>
</svg>
