<svg width="39" height="39" viewBox="0 0 39 39" fill="none" xmlns="http://www.w3.org/2000/svg">
<path d="M19.5 37.5C29.4411 37.5 37.5 29.4411 37.5 19.5C37.5 9.55887 29.4411 1.5 19.5 1.5C9.55887 1.5 1.5 9.55887 1.5 19.5C1.5 29.4411 9.55887 37.5 19.5 37.5Z" fill="#E6C777"/>
<rect width="3.07861" height="38.06" transform="matrix(0.724787 0.688972 -0.724787 0.688972 32.9446 6.03601)" fill="#C5112E"/>
<path d="M26.2506 1.26184L29.3808 3.06026L2.54792 28.5672L1.24514 25.2423L26.2506 1.26184Z" fill="white"/>
<path d="M37.7043 12.139L38.181 16.1297L15.096 37.85L11.5 37L37.7043 12.139Z" fill="#1B458F"/>
<path d="M19.5 0.75C29.8553 0.75 38.25 9.14466 38.25 19.5C38.25 29.8553 29.8553 38.25 19.5 38.25C9.14466 38.25 0.75 29.8553 0.75 19.5C0.75 9.14466 9.14466 0.75 19.5 0.75Z" stroke="#F6F6F6" stroke-width="1.5"/>
</svg>
