<svg width="51" height="51" viewBox="0 0 51 51" fill="none" xmlns="http://www.w3.org/2000/svg">
<path d="M37.6534 13.2583C44.39 19.9948 44.39 30.9169 37.6534 37.6534C30.9169 44.39 19.9948 44.39 13.2583 37.6534C6.52171 30.9169 6.52171 19.9948 13.2583 13.2583C19.9948 6.52171 30.9169 6.52171 37.6534 13.2583Z" fill="#005D9C" stroke="#C79100" stroke-width="1.5"/>
<path d="M23.3004 7.81222L26.5165 8.13172L8.13168 26.5165L7.77813 23.3345L23.3004 7.81222Z" fill="white"/>
<path d="M30.4056 9.1924L32.8805 10.2531L9.8995 33.234L8.83884 30.7592L30.4056 9.1924Z" fill="white"/>
<rect x="40.3051" y="17.6777" width="2.5" height="32" transform="rotate(45 40.3051 17.6777)" fill="white"/>
<rect x="36.416" y="12.3744" width="2.5" height="34.65" transform="rotate(45 36.416 12.3744)" fill="white"/>
<path d="M42.7799 24.3952L42.4264 28.2843L28.2843 42.4264L24.2537 42.9214L42.7799 24.3952Z" fill="white"/>
<path d="M36.7696 14.1421C43.0179 20.3905 43.0179 30.5212 36.7696 36.7696C30.5212 43.0179 20.3905 43.0179 14.1421 36.7696C7.89375 30.5212 7.89375 20.3905 14.1421 14.1421C20.3905 7.89375 30.5212 7.89375 36.7696 14.1421Z" stroke="#E01217" stroke-width="4"/>
<path d="M38.5373 38.5373C31.3126 45.762 19.599 45.762 12.3743 38.5373C5.14964 31.3126 5.14964 19.5991 12.3743 12.3744C19.599 5.1497 31.3126 5.1497 38.5373 12.3744C45.762 19.5991 45.762 31.3126 38.5373 38.5373Z" stroke="#F6F6F6"/>
</svg>
