<svg width="38" height="38" viewBox="0 0 38 38" fill="none" xmlns="http://www.w3.org/2000/svg">
<path d="M19 1.75C28.5269 1.75 36.25 9.47309 36.25 19C36.25 28.5269 28.5269 36.25 19 36.25C9.47309 36.25 1.75 28.5269 1.75 19C1.75 9.47309 9.47309 1.75 19 1.75Z" fill="#ED1C24" stroke="#FFF300" stroke-width="1.5"/>
<path d="M19 2.5C28.1127 2.5 35.5 9.8873 35.5 19C35.5 28.1127 28.1127 35.5 19 35.5C9.8873 35.5 2.5 28.1127 2.5 19C2.5 9.8873 9.8873 2.5 19 2.5Z" fill="#ED1C24" stroke="black" stroke-width="3"/>
<path d="M14.5 27.208L12.5 26.2568V12.209C12.5779 12.135 12.6826 12.0371 12.8057 11.9248C13.082 11.6725 13.4461 11.3536 13.8057 11.0762C14.0741 10.8691 14.3136 10.7071 14.5 10.6064V27.208Z" fill="#FFF300" stroke="#FFF300"/>
<path d="M23.5 27.208L25.5 26.2568V12.209C25.4221 12.135 25.3174 12.0371 25.1943 11.9248C24.918 11.6725 24.5539 11.3536 24.1943 11.0762C23.9259 10.8691 23.6864 10.7071 23.5 10.6064V27.208Z" fill="#FFF300" stroke="#FFF300"/>
<rect x="17.5" y="9.5" width="3" height="20" fill="#FFF300" stroke="#FFF300"/>
<path d="M37.5 19C37.5 29.2173 29.2173 37.5 19 37.5C8.78273 37.5 0.5 29.2173 0.5 19C0.5 8.78273 8.78273 0.5 19 0.5C29.2173 0.5 37.5 8.78273 37.5 19Z" stroke="#F6F6F6"/>
</svg>
