<svg width="38" height="38" viewBox="0 0 38 38" fill="none" xmlns="http://www.w3.org/2000/svg">
<path d="M1.75 19C1.75 9.47309 9.47309 1.75 19 1.75C28.5269 1.75 36.25 9.47309 36.25 19C36.25 28.5269 28.5269 36.25 19 36.25C9.47309 36.25 1.75 28.5269 1.75 19Z" fill="white" stroke="#231F20" stroke-width="1.5"/>
<path d="M4.28613 11.5H33.7197L34.2793 13H3.72168L4.28613 11.5Z" fill="#231F20" stroke="#231F20"/>
<rect x="2.5" y="19" width="1.5" height="33" transform="rotate(-90 2.5 19)" fill="#231F20" stroke="#231F20"/>
<path d="M8.14062 6.07324L29.4873 6.00098L31.4951 7.5H7.02441L8.14062 6.07324Z" fill="#231F20" stroke="#231F20"/>
<path d="M19 0.5C29.2173 0.5 37.5 8.78273 37.5 19C37.5 29.2173 29.2173 37.5 19 37.5C8.78273 37.5 0.5 29.2173 0.5 19C0.5 8.78273 8.78273 0.5 19 0.5Z" stroke="#F6F6F6"/>
<path d="M36.4932 19.5C36.2287 28.9337 28.4979 36.5 19 36.5C9.50212 36.5 1.7723 28.9337 1.50781 19.5H36.4932Z" fill="#F58113" stroke="black"/>
</svg>
