<svg width="38" height="38" viewBox="0 0 38 38" fill="none" xmlns="http://www.w3.org/2000/svg">
<path d="M36.5 19C36.5 28.665 28.665 36.5 19 36.5C9.33502 36.5 1.5 28.665 1.5 19C1.5 9.33502 9.33502 1.5 19 1.5C28.665 1.5 36.5 9.33502 36.5 19Z" fill="#482E92" stroke="#A29160"/>
<path d="M37.5 19C37.5 29.2173 29.2173 37.5 19 37.5C8.78273 37.5 0.5 29.2173 0.5 19C0.5 8.78273 8.78273 0.5 19 0.5C29.2173 0.5 37.5 8.78273 37.5 19Z" stroke="#F6F6F6"/>
<path d="M10.3759 15.7318L19.2796 6.71614L28.0142 15.7311L19.2789 31.5402L10.3759 15.7318Z" fill="white" stroke="#A29160"/>
<path d="M19.0764 24.1529L14.7179 16.4137L19.0764 12L23.353 16.4137L19.0764 24.1529Z" fill="#EC1C23"/>
</svg>
