<svg width="38" height="38" viewBox="0 0 38 38" fill="none" xmlns="http://www.w3.org/2000/svg">
<path d="M36.25 19C36.25 28.5269 28.5269 36.25 19 36.25C9.47309 36.25 1.75 28.5269 1.75 19C1.75 9.47309 9.47309 1.75 19 1.75C28.5269 1.75 36.25 9.47309 36.25 19Z" fill="#D70F21" stroke="black" stroke-width="1.5"/>
<path d="M34.5005 11.5H4.31006L6.31006 7.5H31.354C31.3751 7.52088 31.3982 7.5443 31.4233 7.56934C31.5584 7.70396 31.7491 7.8967 31.9712 8.12793C32.4168 8.59192 32.9833 9.20575 33.478 9.81543C33.9859 10.4413 34.3728 11.0088 34.5122 11.3906C34.5281 11.4342 34.5386 11.4693 34.5454 11.4971C34.5322 11.4977 34.5173 11.5 34.5005 11.5Z" fill="black" stroke="black"/>
<rect x="35.5" y="17" width="3.725" height="33.65" transform="rotate(90 35.5 17)" fill="black" stroke="black"/>
<path d="M34.5171 26.6924C34.5057 26.8163 34.4439 27.0056 34.3081 27.2588C34.1763 27.5046 33.9937 27.7773 33.7788 28.0605C33.3493 28.6269 32.8192 29.2002 32.3911 29.6367C32.1782 29.8538 31.9927 30.0349 31.8608 30.1611C31.8376 30.1834 31.8161 30.2039 31.7964 30.2227L7.17432 30.001C7.14246 29.976 7.10492 29.9472 7.06299 29.9141C6.90947 29.7927 6.69217 29.6195 6.43896 29.4111C5.93085 28.993 5.28237 28.4395 4.71045 27.8896C4.13702 27.3384 3.69425 26.8387 3.51025 26.5H34.0005C34.3501 26.5001 34.4754 26.5694 34.5044 26.5928C34.5123 26.5992 34.5124 26.6004 34.5132 26.6025C34.5156 26.6096 34.5222 26.636 34.5171 26.6924Z" fill="black" stroke="black"/>
<path d="M19 37.5C8.78273 37.5 0.5 29.2173 0.5 19C0.5 8.78273 8.78273 0.5 19 0.5C29.2173 0.5 37.5 8.78273 37.5 19C37.5 29.2173 29.2173 37.5 19 37.5Z" stroke="#F6F6F6"/>
</svg>
