<svg width="38" height="38" viewBox="0 0 38 38" fill="none" xmlns="http://www.w3.org/2000/svg">
<path d="M1 19C1 28.9411 9.05887 37 19 37C28.9411 37 37 28.9411 37 19C37 9.05887 28.9411 1 19 1C9.05887 1 1 9.05887 1 19Z" fill="#003B79"/>
<circle cx="19" cy="19" r="11.5" fill="#E2001A" stroke="white"/>
<path d="M25 19C25 22.3137 22.3137 25 19 25C15.6863 25 13 22.3137 13 19C13 15.6863 15.6863 13 19 13C22.3137 13 25 15.6863 25 19Z" fill="white"/>
<path d="M37.5 19C37.5 29.2173 29.2173 37.5 19 37.5C8.78273 37.5 0.5 29.2173 0.5 19C0.5 8.78273 8.78273 0.5 19 0.5C29.2173 0.5 37.5 8.78273 37.5 19Z" stroke="#F6F6F6"/>
</svg>
