<svg width="38" height="38" viewBox="0 0 38 38" fill="none" xmlns="http://www.w3.org/2000/svg">
<path d="M19 1.75C28.5269 1.75 36.25 9.47309 36.25 19C36.25 28.5269 28.5269 36.25 19 36.25C9.47309 36.25 1.75 28.5269 1.75 19C1.75 9.47309 9.47309 1.75 19 1.75Z" fill="white" stroke="#241F20" stroke-width="1.5"/>
<path d="M26.5 4.28613V33.7197L25 34.2793V3.72168L26.5 4.28613Z" fill="#241F20" stroke="#241F20"/>
<rect x="19.5" y="2.5" width="1.5" height="33" fill="#241F20" stroke="#241F20"/>
<path d="M31.9268 8.14062L31.999 29.4873L30.5 31.4951V7.02441L31.9268 8.14062Z" fill="#241F20" stroke="#241F20"/>
<path d="M9.27386 16L10.3579 18.5H11.8333L12.8519 16L13.5 18.5L16 16.8333L14.3333 21L11.8333 20.1667H11H10.1667L7.66667 21L6 16.8333L8.69124 18.5L9.27386 16Z" fill="black"/>
<path d="M37.5 19C37.5 29.2173 29.2173 37.5 19 37.5C8.78273 37.5 0.5 29.2173 0.5 19C0.5 8.78273 8.78273 0.5 19 0.5C29.2173 0.5 37.5 8.78273 37.5 19Z" stroke="#F6F6F6"/>
</svg>
