<svg width="39" height="39" viewBox="0 0 39 39" fill="none" xmlns="http://www.w3.org/2000/svg">
<path d="M19.5 2.24997C29.0269 2.24997 36.75 9.97306 36.75 19.5C36.75 29.0269 29.0269 36.75 19.5 36.75C9.97309 36.75 2.25 29.0269 2.25 19.5C2.25 9.97306 9.97309 2.24997 19.5 2.24997Z" fill="#EC1D23" stroke="white" stroke-width="1.5"/>
<path d="M19.5 0.75C29.8553 0.75 38.25 9.14466 38.25 19.5C38.25 29.8553 29.8553 38.25 19.5 38.25C9.14466 38.25 0.75 29.8553 0.75 19.5C0.75 9.14466 9.14466 0.75 19.5 0.75Z" stroke="#F6F6F6" stroke-width="1.5"/>
<path d="M13 9.5L17.7631 17.75H8.23686L13 9.5Z" fill="black"/>
<path d="M26 9.5L30.7631 17.75H21.2369L26 9.5Z" fill="black"/>
<rect x="36.471" y="18.4541" width="3.3625" height="33.7185" transform="rotate(89.933 36.471 18.4541)" fill="white" stroke="white"/>
</svg>
