<svg width="39" height="39" viewBox="0 0 39 39" fill="none" xmlns="http://www.w3.org/2000/svg">
<path d="M19.5 2.25C29.0269 2.25 36.75 9.97309 36.75 19.5C36.75 29.0269 29.0269 36.75 19.5 36.75C9.97309 36.75 2.25 29.0269 2.25 19.5C2.25 9.97309 9.97309 2.25 19.5 2.25Z" fill="#17191D" stroke="#C6A566" stroke-width="1.5"/>
<path d="M19.5 0.75C29.8553 0.75 38.25 9.14466 38.25 19.5C38.25 29.8553 29.8553 38.25 19.5 38.25C9.14466 38.25 0.75 29.8553 0.75 19.5C0.75 9.14466 9.14466 0.75 19.5 0.75Z" stroke="#F6F6F6" stroke-width="1.5"/>
<path d="M27.9098 25.1729L27.3324 26.977L13.8107 24.0267L12.8643 21.8633L27.9098 25.1729Z" fill="#C6A566"/>
<path d="M28.3679 25.1782L27.2372 26.9741L11.464 19.2615L10.8236 16.5669L28.3679 25.1782Z" fill="#C6A566"/>
<path d="M28.8621 25.5203L27.3936 26.9375L10.2219 13.4632L9.76544 10.5L28.8621 25.5203Z" fill="#C6A566"/>
</svg>
