<svg width="38" height="38" viewBox="0 0 38 38" fill="none" xmlns="http://www.w3.org/2000/svg">
<path d="M36.5 19C36.5 28.665 28.665 36.5 19 36.5C9.33502 36.5 1.5 28.665 1.5 19C1.5 9.33502 9.33502 1.5 19 1.5C28.665 1.5 36.5 9.33502 36.5 19Z" fill="#193260" stroke="#C29C5C"/>
<path d="M36.4932 19.4996C36.2287 28.9336 28.4979 36.4996 19 36.4996C9.50212 36.4996 1.7723 28.9336 1.50781 19.4996H36.4932Z" fill="#79BCE7" stroke="#BA965C"/>
<path d="M0.5 19C0.5 8.78273 8.78273 0.5 19 0.5C29.2173 0.5 37.5 8.78273 37.5 19C37.5 29.2173 29.2173 37.5 19 37.5C8.78273 37.5 0.5 29.2173 0.5 19Z" stroke="#F6F6F6"/>
<mask id="path-4-outside-1_1_30" maskUnits="userSpaceOnUse" x="18" y="19" width="19" height="18" fill="black">
<rect fill="white" x="18" y="19" width="19" height="18"/>
<path d="M19.5 20H36C36 28.8366 28.6127 36 19.5 36V20Z"/>
</mask>
<path d="M19.5 20H36C36 28.8366 28.6127 36 19.5 36V20Z" fill="#193260"/>
<path d="M19.5 20V19H18.5V20H19.5ZM36 20H37V19H36V20ZM19.5 36H18.5V37H19.5V36ZM19.5 20V21H36V20V19H19.5V20ZM36 20H35C35 28.2555 28.0896 35 19.5 35V36V37C29.1358 37 37 29.4176 37 20H36ZM19.5 36H20.5V20H19.5H18.5V36H19.5Z" fill="#C29C5C" mask="url(#path-4-outside-1_1_30)"/>
<path d="M16.5834 8L18.1011 11.5H20.1667L21.5927 8L22.5 11.5L26 9.16667L23.6667 15L20.1667 13.8333H19H17.8333L14.3333 15L12 9.16667L15.7677 11.5L16.5834 8Z" fill="white"/>
</svg>
