<svg width="38" height="38" viewBox="0 0 38 38" fill="none" xmlns="http://www.w3.org/2000/svg">
<path d="M1.06909 19.0691C1.06909 29.0102 9.12797 37.0691 19.0691 37.0691C29.0102 37.0691 37.0691 29.0102 37.0691 19.0691C37.0691 9.12797 29.0102 1.06909 19.0691 1.06909C9.12797 1.06909 1.06909 9.12797 1.06909 19.0691Z" fill="#002856"/>
<path d="M1.06909 19.0691C1.06909 29.0102 9.12797 37.0691 19.0691 37.0691C29.0102 37.0691 37.0691 29.0102 37.0691 19.0691C37.0691 19.0691 27.9979 19.0687 18.0568 19.0687C8.11569 19.0687 1.06909 19.0691 1.06909 19.0691Z" fill="black" fill-opacity="0.19"/>
<path d="M9.73309 21.1091L9.69309 20.7251L11.0691 20.5491L10.7651 20.8611C10.7811 20.7651 10.7971 20.6584 10.8131 20.5411C10.8291 20.4184 10.8424 20.3064 10.8531 20.2051C10.8638 20.1038 10.8691 20.0344 10.8691 19.9971V16.5811L11.1091 16.7091L9.79709 17.3331L9.58909 17.0131L11.2131 15.6931L11.5411 15.7891C11.5358 15.9971 11.5278 16.2291 11.5171 16.4851C11.5064 16.7358 11.4984 16.9704 11.4931 17.1891C11.4878 17.4024 11.4851 17.5598 11.4851 17.6611V19.7571C11.4851 19.8798 11.4878 20.0024 11.4931 20.1251C11.5038 20.2478 11.5144 20.3704 11.5251 20.4931C11.5411 20.6158 11.5571 20.7384 11.5731 20.8611L11.2771 20.5731L12.4371 20.6531L12.3811 21.0691H11.1251C11.0984 21.0691 11.0291 21.0691 10.9171 21.0691C10.8051 21.0744 10.6744 21.0798 10.5251 21.0851C10.3758 21.0904 10.2291 21.0931 10.0851 21.0931C9.94109 21.0984 9.82376 21.1038 9.73309 21.1091ZM13.7767 21.9251L13.6727 21.5251C14.206 21.3544 14.646 21.1331 14.9927 20.8611C15.3447 20.5891 15.6193 20.2878 15.8167 19.9571C16.0193 19.6211 16.1607 19.2744 16.2407 18.9171C16.326 18.5544 16.3687 18.2024 16.3687 17.8611C16.3687 17.5998 16.3287 17.3411 16.2487 17.0851C16.1687 16.8291 16.0433 16.6184 15.8727 16.4531C15.7073 16.2824 15.4913 16.1971 15.2247 16.1971C15.0007 16.1971 14.814 16.2558 14.6647 16.3731C14.5153 16.4904 14.4033 16.6478 14.3287 16.8451C14.254 17.0371 14.2167 17.2451 14.2167 17.4691C14.2167 17.6718 14.2593 17.8611 14.3447 18.0371C14.4353 18.2131 14.558 18.3544 14.7127 18.4611C14.8727 18.5678 15.0567 18.6211 15.2647 18.6211C15.3553 18.6211 15.4433 18.6211 15.5287 18.6211C15.614 18.6158 15.6993 18.6078 15.7847 18.5971L15.8407 18.9491C15.7553 18.9864 15.6567 19.0184 15.5447 19.0451C15.438 19.0664 15.326 19.0771 15.2087 19.0771C14.8833 19.0771 14.59 19.0131 14.3287 18.8851C14.0727 18.7518 13.87 18.5651 13.7207 18.3251C13.5713 18.0798 13.4967 17.7944 13.4967 17.4691C13.4967 17.1384 13.574 16.8451 13.7287 16.5891C13.8833 16.3331 14.094 16.1331 14.3607 15.9891C14.6273 15.8451 14.9233 15.7731 15.2487 15.7731C15.654 15.7731 15.9927 15.8638 16.2647 16.0451C16.542 16.2211 16.75 16.4664 16.8887 16.7811C17.0327 17.0958 17.1047 17.4558 17.1047 17.8611C17.1047 18.2931 17.0407 18.7251 16.9127 19.1571C16.7847 19.5838 16.5873 19.9838 16.3207 20.3571C16.054 20.7304 15.71 21.0531 15.2887 21.3251C14.8673 21.5971 14.3633 21.7971 13.7767 21.9251ZM20.3722 21.1491C20.0309 21.1491 19.7375 21.0771 19.4922 20.9331C19.2522 20.7891 19.0549 20.5944 18.9002 20.3491C18.7509 20.0984 18.6415 19.8104 18.5722 19.4851C18.5029 19.1598 18.4682 18.8184 18.4682 18.4611C18.4682 18.0984 18.5029 17.7571 18.5722 17.4371C18.6415 17.1118 18.7509 16.8264 18.9002 16.5811C19.0549 16.3304 19.2522 16.1331 19.4922 15.9891C19.7375 15.8451 20.0309 15.7731 20.3722 15.7731C20.7135 15.7731 21.0042 15.8451 21.2442 15.9891C21.4895 16.1331 21.6869 16.3304 21.8362 16.5811C21.9909 16.8264 22.1029 17.1118 22.1722 17.4371C22.2415 17.7571 22.2762 18.0984 22.2762 18.4611C22.2762 18.8184 22.2415 19.1598 22.1722 19.4851C22.1029 19.8104 21.9909 20.0984 21.8362 20.3491C21.6869 20.5944 21.4895 20.7891 21.2442 20.9331C21.0042 21.0771 20.7135 21.1491 20.3722 21.1491ZM20.3722 20.6851C20.6175 20.6851 20.8149 20.6184 20.9642 20.4851C21.1189 20.3518 21.2362 20.1758 21.3162 19.9571C21.4015 19.7384 21.4575 19.4984 21.4842 19.2371C21.5162 18.9758 21.5322 18.7171 21.5322 18.4611C21.5322 18.2051 21.5162 17.9464 21.4842 17.6851C21.4575 17.4184 21.4015 17.1758 21.3162 16.9571C21.2362 16.7384 21.1189 16.5624 20.9642 16.4291C20.8149 16.2958 20.6175 16.2291 20.3722 16.2291C20.1269 16.2291 19.9269 16.2958 19.7722 16.4291C19.6229 16.5624 19.5055 16.7384 19.4202 16.9571C19.3402 17.1758 19.2842 17.4184 19.2522 17.6851C19.2202 17.9464 19.2042 18.2051 19.2042 18.4611C19.2042 18.7171 19.2202 18.9758 19.2522 19.2371C19.2842 19.4984 19.3402 19.7384 19.4202 19.9571C19.5055 20.1758 19.6229 20.3518 19.7722 20.4851C19.9269 20.6184 20.1269 20.6851 20.3722 20.6851ZM25.3515 21.1491C25.0422 21.1491 24.7542 21.0984 24.4875 20.9971C24.2262 20.8958 24.0129 20.7438 23.8475 20.5411C23.6875 20.3331 23.6075 20.0718 23.6075 19.7571C23.6075 19.5384 23.6635 19.3384 23.7755 19.1571C23.8875 18.9758 24.0315 18.8131 24.2075 18.6691C24.3835 18.5198 24.5702 18.3918 24.7675 18.2851C24.9702 18.1731 25.1595 18.0824 25.3355 18.0131L25.4795 18.2771C25.3035 18.3624 25.1222 18.4798 24.9355 18.6291C24.7542 18.7784 24.5995 18.9491 24.4715 19.1411C24.3489 19.3278 24.2875 19.5331 24.2875 19.7571C24.2875 20.0718 24.3889 20.3251 24.5915 20.5171C24.7942 20.7038 25.0475 20.7971 25.3515 20.7971C25.5435 20.7971 25.7195 20.7544 25.8795 20.6691C26.0395 20.5838 26.1675 20.4664 26.2635 20.3171C26.3595 20.1624 26.4075 19.9864 26.4075 19.7891C26.4075 19.5758 26.3489 19.3971 26.2315 19.2531C26.1195 19.1038 25.9729 18.9731 25.7915 18.8611C25.6102 18.7491 25.4182 18.6398 25.2155 18.5331C24.9809 18.4104 24.7542 18.2824 24.5355 18.1491C24.3169 18.0104 24.1355 17.8424 23.9915 17.6451C23.8529 17.4478 23.7835 17.1998 23.7835 16.9011C23.7835 16.6291 23.8555 16.3971 23.9995 16.2051C24.1489 16.0131 24.3409 15.8664 24.5755 15.7651C24.8155 15.6638 25.0742 15.6131 25.3515 15.6131C25.6235 15.6131 25.8769 15.6638 26.1115 15.7651C26.3515 15.8664 26.5462 16.0131 26.6955 16.2051C26.8449 16.3971 26.9195 16.6344 26.9195 16.9171C26.9195 17.1571 26.8475 17.3811 26.7035 17.5891C26.5595 17.7971 26.3755 17.9838 26.1515 18.1491C25.9275 18.3091 25.6902 18.4398 25.4395 18.5411L25.3435 18.2851C25.5515 18.1518 25.7222 18.0104 25.8555 17.8611C25.9942 17.7118 26.0955 17.5598 26.1595 17.4051C26.2289 17.2451 26.2635 17.0824 26.2635 16.9171C26.2635 16.6398 26.1755 16.4104 25.9995 16.2291C25.8235 16.0478 25.6075 15.9571 25.3515 15.9571C25.1915 15.9571 25.0422 15.9998 24.9035 16.0851C24.7649 16.1704 24.6502 16.2824 24.5595 16.4211C24.4742 16.5598 24.4315 16.7144 24.4315 16.8851C24.4315 17.0984 24.4902 17.2798 24.6075 17.4291C24.7249 17.5731 24.8769 17.7011 25.0635 17.8131C25.2502 17.9251 25.4475 18.0344 25.6555 18.1411C25.8902 18.2584 26.1169 18.3891 26.3355 18.5331C26.5542 18.6718 26.7355 18.8398 26.8795 19.0371C27.0235 19.2291 27.0955 19.4744 27.0955 19.7731C27.0955 20.0771 27.0155 20.3331 26.8555 20.5411C26.6955 20.7438 26.4822 20.8958 26.2155 20.9971C25.9542 21.0984 25.6662 21.1491 25.3515 21.1491Z" fill="#C89C66"/>
<path d="M19 37.5C8.78273 37.5 0.5 29.2173 0.5 19C0.5 8.78273 8.78273 0.5 19 0.5C29.2173 0.5 37.5 8.78273 37.5 19C37.5 29.2173 29.2173 37.5 19 37.5Z" stroke="#F6F6F6"/>
<path d="M3.06909 18.0691L7.06909 18.0691" stroke="#FCE803" stroke-linecap="round"/>
<path d="M3.06909 20.0691L7.06909 20.0691" stroke="#E10E14" stroke-linecap="round"/>
<path d="M31.0691 18.0691L35.0691 18.0691" stroke="#FCE803" stroke-linecap="round"/>
<path d="M31.0691 20.0691L35.0691 20.0691" stroke="#E10E14" stroke-linecap="round"/>
</svg>
