<svg width="39" height="39" viewBox="0 0 39 39" fill="none" xmlns="http://www.w3.org/2000/svg">
<path d="M2.25 19.5C2.25 9.97309 9.97309 2.25 19.5 2.25C29.0269 2.25 36.75 9.97309 36.75 19.5C36.75 29.0269 29.0269 36.75 19.5 36.75C9.97309 36.75 2.25 29.0269 2.25 19.5Z" fill="#ED1C24" stroke="#FFF200" stroke-width="1.5"/>
<rect x="13.2552" y="4.23956" width="1.3625" height="30.6418" transform="rotate(-45 13.2552 4.23956)" stroke="#FFF200"/>
<rect x="7.7513" y="7.08832" width="1.3625" height="34.1679" transform="rotate(-45 7.7513 7.08832)" stroke="#FFF200"/>
<path d="M21.8005 2.33199L36.7913 17.4954L36.5952 19.2093L20.0155 2.62961L21.8005 2.33199Z" stroke="#FFF200"/>
<path d="M0.75 19.5C0.75 9.14466 9.14466 0.75 19.5 0.75C29.8553 0.75 38.25 9.14466 38.25 19.5C38.25 29.8553 29.8553 38.25 19.5 38.25C9.14466 38.25 0.75 29.8553 0.75 19.5Z" stroke="#F6F6F6" stroke-width="1.5"/>
</svg>
