<svg width="38" height="38" viewBox="0 0 38 38" fill="none" xmlns="http://www.w3.org/2000/svg">
<path d="M19 0.5C29.2173 0.5 37.5 8.78273 37.5 19C37.5 29.2173 29.2173 37.5 19 37.5C8.78273 37.5 0.5 29.2173 0.5 19C0.5 8.78273 8.78273 0.5 19 0.5Z" fill="#B3023D" stroke="#F6F6F6"/>
<path d="M19.0004 37C28.9415 37 37.0004 28.9411 37.0004 19C37.0004 9.05887 28.9415 1 19.0004 1C19.0004 1 19 10.0712 19 20.0123C19 29.9534 19.0004 37 19.0004 37Z" fill="#005CA3"/>
<path d="M19 12.5C22.5899 12.5 25.5 15.4101 25.5 19C25.5 22.5899 22.5899 25.5 19 25.5C15.4101 25.5 12.5 22.5899 12.5 19C12.5 15.4101 15.4101 12.5 19 12.5Z" fill="#DCA33A" stroke="black"/>
</svg>
