<svg width="38" height="38" viewBox="0 0 38 38" fill="none" xmlns="http://www.w3.org/2000/svg">
<path d="M19 1.75C28.5269 1.75 36.25 9.47309 36.25 19C36.25 28.5269 28.5269 36.25 19 36.25C9.47309 36.25 1.75 28.5269 1.75 19C1.75 9.47309 9.47309 1.75 19 1.75Z" fill="white" stroke="#C3141E" stroke-width="1.5"/>
<rect x="18" y="2" width="2" height="34" fill="#C3141E"/>
<path d="M11.5 16.9C11.5 16.5 11.3 16.3 10.9 16.3H9.8C9.4 16.3 9.2 16.5 9.2 16.9V20.1C9.2 20.5 9.4 20.7 9.8 20.7H10.9C11.3 20.7 11.5 20.5 11.5 20.1V16.9ZM13.3 20.1C13.3 20.8 13.14 21.31 12.82 21.63C12.5067 21.9433 12 22.1 11.3 22.1H9.4C8.7 22.1 8.19 21.9433 7.87 21.63C7.55667 21.31 7.4 20.8 7.4 20.1V16.9C7.4 16.2 7.55667 15.6933 7.87 15.38C8.19 15.06 8.7 14.9 9.4 14.9H11.3C12 14.9 12.5067 15.06 12.82 15.38C13.14 15.6933 13.3 16.2 13.3 16.9V20.1Z" fill="#C3141E"/>
<path d="M27.9 22.1C26.7867 22.1 25.5533 22.0333 24.2 21.9V20.55C25.6733 20.65 26.7733 20.7 27.5 20.7C27.6533 20.7 27.7733 20.6567 27.86 20.57C27.9533 20.4767 28 20.3533 28 20.2V19.7C28 19.3 27.8 19.1 27.4 19.1H24.5V15H29.3V16.4H26.3V17.7H27.9C28.5533 17.7 29.0333 17.85 29.34 18.15C29.6467 18.4433 29.8 18.8933 29.8 19.5V20.2C29.8 20.8533 29.6467 21.3333 29.34 21.64C29.0333 21.9467 28.5533 22.1 27.9 22.1Z" fill="#C3141E"/>
<path d="M37.5 19C37.5 29.2173 29.2173 37.5 19 37.5C8.78273 37.5 0.5 29.2173 0.5 19C0.5 8.78273 8.78273 0.5 19 0.5C29.2173 0.5 37.5 8.78273 37.5 19Z" stroke="#F6F6F6"/>
</svg>
