<svg width="38" height="38" viewBox="0 0 38 38" fill="none" xmlns="http://www.w3.org/2000/svg">
<path d="M19 1.75C28.5269 1.75 36.25 9.47309 36.25 19C36.25 28.5269 28.5269 36.25 19 36.25C9.47309 36.25 1.75 28.5269 1.75 19C1.75 9.47309 9.47309 1.75 19 1.75Z" fill="#F6E600" stroke="#F6E600" stroke-width="1.5"/>
<path d="M11.5 3.49957V33.69L7.5 31.69V6.64606C7.52088 6.62498 7.5443 6.60183 7.56934 6.57672C7.70396 6.44171 7.8967 6.25093 8.12793 6.02887C8.59192 5.58328 9.20575 5.01681 9.81543 4.52203C10.4413 4.01416 11.0088 3.62724 11.3906 3.48785C11.4342 3.47194 11.4693 3.4615 11.4971 3.45465C11.4977 3.4679 11.5 3.48276 11.5 3.49957Z" fill="#F6E600" stroke="#F6E600"/>
<rect x="17" y="2.5" width="3.725" height="33.65" fill="#F6E600" stroke="#F6E600"/>
<path d="M26.6924 3.48297C26.8163 3.49435 27.0056 3.55618 27.2588 3.69196C27.5046 3.82377 27.7773 4.0064 28.0605 4.22125C28.6269 4.65081 29.2002 5.18091 29.6367 5.60895C29.8538 5.82182 30.0349 6.00737 30.1611 6.13922C30.1834 6.16244 30.2039 6.18395 30.2227 6.20367L30.001 30.8257C29.976 30.8576 29.9472 30.8951 29.9141 30.9371C29.7927 31.0906 29.6195 31.3079 29.4111 31.5611C28.993 32.0692 28.4395 32.7177 27.8896 33.2896C27.3384 33.863 26.8387 34.3058 26.5 34.4898V3.99957C26.5001 3.64991 26.5694 3.52463 26.5928 3.49567C26.5992 3.48774 26.6004 3.48764 26.6025 3.48688C26.6096 3.48444 26.636 3.47782 26.6924 3.48297Z" fill="#F6E600" stroke="#F6E600"/>
<path d="M37.5 19C37.5 29.2173 29.2173 37.5 19 37.5C8.78273 37.5 0.5 29.2173 0.5 19C0.5 8.78273 8.78273 0.5 19 0.5C29.2173 0.5 37.5 8.78273 37.5 19Z" stroke="#F6F6F6"/>
<path d="M19 2.75C27.9746 2.75 35.25 10.0254 35.25 19C35.25 27.9746 27.9746 35.25 19 35.25C10.0254 35.25 2.75 27.9746 2.75 19C2.75 10.0254 10.0254 2.75 19 2.75Z" stroke="#00A04A" stroke-width="1.5"/>
<path d="M12.5 23L19 15L25.5 23" stroke="#00A04A" stroke-width="3" stroke-linecap="round"/>
</svg>
