<svg width="38" height="38" viewBox="0 0 38 38" fill="none" xmlns="http://www.w3.org/2000/svg">
<path d="M19 1.75C28.5269 1.75 36.25 9.47309 36.25 19C36.25 28.5269 28.5269 36.25 19 36.25C9.47309 36.25 1.75 28.5269 1.75 19C1.75 9.47309 9.47309 1.75 19 1.75Z" fill="#2FAEE0" stroke="white" stroke-width="1.5"/>
<path d="M24 2L27 3.56923V34.9538L24 36V2Z" fill="white"/>
<rect x="18.5" y="2.5" width="2" height="33" fill="white" stroke="white"/>
<path d="M30 6L33 8.6V27.84L30 32V6Z" fill="white"/>
<path d="M13.2008 22.1568C13.2291 22.2494 13.1223 22.3242 13.045 22.2659L10.6071 20.4289C10.5725 20.4028 10.5251 20.402 10.4896 20.4268L7.98915 22.1776C7.90979 22.2332 7.8057 22.1548 7.83724 22.0632L8.83103 19.177C8.84513 19.136 8.83126 19.0906 8.79666 19.0646L6.35883 17.2275C6.28147 17.1692 6.3239 17.046 6.42076 17.0477L9.47279 17.101C9.5161 17.1017 9.55498 17.0745 9.56908 17.0335L10.5629 14.1473C10.5944 14.0557 10.7247 14.058 10.7531 14.1507L11.6455 17.0698C11.6582 17.1112 11.6961 17.1398 11.7394 17.1405L14.7914 17.1938C14.8883 17.1955 14.9264 17.3201 14.847 17.3757L12.3466 19.1265C12.3111 19.1514 12.2957 19.1963 12.3083 19.2377L13.2008 22.1568Z" fill="#BEA064"/>
<path d="M37.5 19C37.5 29.2173 29.2173 37.5 19 37.5C8.78273 37.5 0.5 29.2173 0.5 19C0.5 8.78273 8.78273 0.5 19 0.5C29.2173 0.5 37.5 8.78273 37.5 19Z" stroke="#F6F6F6"/>
</svg>
