<svg width="38" height="38" viewBox="0 0 38 38" fill="none" xmlns="http://www.w3.org/2000/svg">
<path d="M36.5 19C36.5 28.665 28.665 36.5 19 36.5C9.33502 36.5 1.5 28.665 1.5 19C1.5 9.33502 9.33502 1.5 19 1.5C28.665 1.5 36.5 9.33502 36.5 19Z" fill="white" stroke="#731013"/>
<path d="M0.5 19C0.5 8.78273 8.78273 0.5 19 0.5C29.2173 0.5 37.5 8.78273 37.5 19C37.5 29.2173 29.2173 37.5 19 37.5C8.78273 37.5 0.5 29.2173 0.5 19Z" stroke="#F6F6F6"/>
<rect x="25" y="14" width="4" height="12" transform="rotate(90 25 14)" fill="#731013"/>
<rect x="25" y="14" width="4" height="12" transform="rotate(90 25 14)" fill="#731013"/>
<rect x="27" y="20" width="4" height="16" transform="rotate(90 27 20)" fill="#731013"/>
<path d="M17 7H21V31H17V7Z" fill="#731013"/>
</svg>
