<svg width="38" height="38" viewBox="0 0 38 38" fill="none" xmlns="http://www.w3.org/2000/svg">
<path d="M19 36.25C9.47309 36.25 1.75 28.5269 1.75 19C1.75 9.47309 9.47309 1.75 19 1.75C28.5269 1.75 36.25 9.47309 36.25 19C36.25 28.5269 28.5269 36.25 19 36.25Z" fill="#E51B22" stroke="#CB9F18" stroke-width="1.5"/>
<path d="M14 36L11 34.4308V3.04615L14 2V36Z" fill="#CB9F18"/>
<rect x="19.5" y="35.5" width="2" height="33" transform="rotate(180 19.5 35.5)" fill="#CB9F18" stroke="#CB9F18"/>
<path d="M8 32L5 29.4V10.16L8 6V32Z" fill="#CB9F18"/>
<path d="M26.0938 16L27.1182 18.3625H28.5125L29.4751 16L30.0875 18.3625L32.45 16.7875L30.875 20.725L28.5125 19.9375H27.725H26.9375L24.575 20.725L23 16.7875L25.5432 18.3625L26.0938 16Z" fill="#CB9F18"/>
<path d="M37.5 19C37.5 29.2173 29.2173 37.5 19 37.5C8.78273 37.5 0.5 29.2173 0.5 19C0.5 8.78273 8.78273 0.5 19 0.5C29.2173 0.5 37.5 8.78273 37.5 19Z" stroke="#F6F6F6"/>
</svg>
