<svg width="38" height="38" viewBox="0 0 38 38" fill="none" xmlns="http://www.w3.org/2000/svg">
<path d="M1 19C1 28.9411 9.05887 37 19 37C28.9411 37 37 28.9411 37 19C37 9.05887 28.9411 1 19 1C9.05887 1 1 9.05887 1 19Z" fill="#26A659"/>
<path d="M24.8485 18.8531L18.506 28.35L12.2332 18.8593L18.506 8.92527L24.8485 18.8531Z" fill="white" stroke="black"/>
<path d="M24.9751 18.8593L18.6326 28.3563L12.3598 18.8656L18.6326 8.93153L24.9751 18.8593Z" fill="white" stroke="black"/>
<path d="M24.5 18.25V19.25H12.5V18.25H24.5Z" fill="black"/>
<path d="M22 14V15H15V14H22Z" fill="black"/>
<path d="M22 22.5V23.5H15V22.5H22Z" fill="black"/>
<path d="M37.5 19C37.5 29.2173 29.2173 37.5 19 37.5C8.78273 37.5 0.5 29.2173 0.5 19C0.5 8.78273 8.78273 0.5 19 0.5C29.2173 0.5 37.5 8.78273 37.5 19Z" stroke="#F6F6F6"/>
</svg>
