<svg width="38" height="38" viewBox="0 0 38 38" fill="none" xmlns="http://www.w3.org/2000/svg">
<path d="M19 0.5C29.2173 0.5 37.5 8.78273 37.5 19C37.5 29.2173 29.2173 37.5 19 37.5C8.78273 37.5 0.5 29.2173 0.5 19C0.5 8.78273 8.78273 0.5 19 0.5Z" fill="#FFDC00" stroke="#00A558"/>
<path d="M19 37C28.9411 37 37 28.9411 37 19C37 9.05887 28.9411 1 19 1C19 1 18.9996 10.0712 18.9996 20.0123C18.9996 29.9534 19 37 19 37Z" fill="#FFDC00"/>
<path d="M37.5 19C37.5 29.2173 29.2173 37.5 19 37.5C8.78273 37.5 0.5 29.2173 0.5 19C0.5 8.78273 8.78273 0.5 19 0.5C29.2173 0.5 37.5 8.78273 37.5 19Z" stroke="#F6F6F6"/>
<rect x="12" y="16" width="2" height="13" fill="#00A558"/>
<path d="M12 17.4362L14 16L24.8814 27.1352L23.4895 28.5714L12 17.4362Z" fill="#00A558"/>
<rect x="24.9761" y="22.0344" width="2" height="13" transform="rotate(-178.954 24.9761 22.0344)" fill="#00A558"/>
<path d="M25.0022 20.5984L22.9763 21.9978L12.3 10.6659L13.7179 9.25536L25.0022 20.5984Z" fill="#00A558"/>
<path d="M19 1.5C28.665 1.5 36.5 9.33502 36.5 19C36.5 28.665 28.665 36.5 19 36.5C9.33502 36.5 1.5 28.665 1.5 19C1.5 9.33502 9.33502 1.5 19 1.5Z" stroke="#00A558"/>
</svg>
