<svg width="38" height="38" viewBox="0 0 38 38" fill="none" xmlns="http://www.w3.org/2000/svg">
<path d="M19 37C28.9411 37 37 28.9411 37 19C37 9.05887 28.9411 1 19 1C9.05887 1 1 9.05887 1 19C1 28.9411 9.05887 37 19 37Z" fill="#12A0D7"/>
<path d="M19 37C28.9411 37 37 28.9411 37 19C37 9.05887 28.9411 1 19 1C19 1 18.9996 10.0712 18.9996 20.0123C18.9996 29.9534 19 37 19 37Z" fill="#003C82"/>
<path d="M12.8438 25C12.7441 25 12.668 24.9414 12.6152 24.8242C12.5684 24.707 12.5449 24.6162 12.5449 24.5518C12.5449 24.3584 12.6416 24.25 12.835 24.2266C13.0225 24.209 13.2217 24.1797 13.4326 24.1387C13.6436 24.0977 13.8223 24.0273 13.9688 23.9277C14.1211 23.8223 14.1973 23.6758 14.1973 23.4883V14.1543C14.1973 13.9023 14.1152 13.7207 13.9512 13.6094C13.793 13.498 13.6025 13.4248 13.3799 13.3896C13.1631 13.3486 12.9639 13.3193 12.7822 13.3018C12.6592 13.29 12.5742 13.2666 12.5273 13.2314C12.4863 13.1904 12.4658 13.1055 12.4658 12.9766C12.4658 12.9121 12.4893 12.8213 12.5361 12.7041C12.5889 12.5869 12.665 12.5283 12.7646 12.5283H15.7354L22.5645 22.249H22.6699V14.1543C22.6699 13.9023 22.5732 13.7207 22.3799 13.6094C22.1924 13.498 21.9756 13.4248 21.7295 13.3896C21.4834 13.3486 21.2695 13.3193 21.0879 13.3018C20.9648 13.29 20.8799 13.2666 20.833 13.2314C20.792 13.1904 20.7715 13.1055 20.7715 12.9766C20.7715 12.9121 20.7949 12.8213 20.8418 12.7041C20.8945 12.5869 20.9707 12.5283 21.0703 12.5283H25.0693C25.1689 12.5283 25.2422 12.5869 25.2891 12.7041C25.3418 12.8213 25.3682 12.9121 25.3682 12.9766C25.3682 13.1699 25.2715 13.2783 25.0781 13.3018C24.9023 13.3193 24.6914 13.3486 24.4453 13.3896C24.2051 13.4248 23.9941 13.498 23.8125 13.6094C23.6309 13.7207 23.54 13.9023 23.54 14.1543V24.0068C23.54 24.1182 23.5459 24.2119 23.5576 24.2881C23.5693 24.3584 23.5811 24.4785 23.5928 24.6484C23.6104 24.8945 23.5576 25.0586 23.4346 25.1406C23.3115 25.2227 23.1885 25.2637 23.0654 25.2637C22.8545 25.2637 22.6963 25.1992 22.5908 25.0703L15.2168 14.8574H15.0674V23.374C15.0674 23.626 15.1553 23.8076 15.3311 23.9189C15.5068 24.0303 15.7119 24.1035 15.9463 24.1387C16.1807 24.1738 16.3857 24.2031 16.5615 24.2266C16.6846 24.2383 16.7666 24.2617 16.8076 24.2969C16.8545 24.332 16.8779 24.417 16.8779 24.5518C16.8779 24.6162 16.8516 24.707 16.7988 24.8242C16.752 24.9414 16.6787 25 16.5791 25H12.8438Z" fill="white"/>
<path d="M37.5 19C37.5 29.2173 29.2173 37.5 19 37.5C8.78273 37.5 0.5 29.2173 0.5 19C0.5 8.78273 8.78273 0.5 19 0.5C29.2173 0.5 37.5 8.78273 37.5 19Z" stroke="#F6F6F6"/>
</svg>
