<svg width="38" height="38" viewBox="0 0 38 38" fill="none" xmlns="http://www.w3.org/2000/svg">
<path d="M19 2C28.3888 2 36 9.61116 36 19C36 28.3888 28.3888 36 19 36C9.61116 36 2 28.3888 2 19C2 9.61116 9.61116 2 19 2Z" fill="white" stroke="#241F20" stroke-width="2"/>
<path d="M7.5 30.3301L5.5 29.7373V8.10547L7.5 7.63184V30.3301Z" fill="#241F20" stroke="#241F20"/>
<rect x="11.5" y="3.5" width="2" height="31" fill="#241F20" stroke="#241F20"/>
<path d="M19 1.5C28.665 1.5 36.5 9.33502 36.5 19C36.5 28.665 28.665 36.5 19 36.5C9.33502 36.5 1.5 28.665 1.5 19C1.5 9.33502 9.33502 1.5 19 1.5Z" stroke="black"/>
<rect x="24.5" y="3.5" width="2" height="31" fill="#241F20" stroke="#241F20"/>
<rect x="18" y="2.5" width="2" height="33" fill="#241F20" stroke="#241F20"/>
<path d="M32.5 8.25V29.6094L30.5 30.2988V7.66602L32.5 8.25Z" fill="#241F20" stroke="#241F20"/>
<path d="M37.5 19C37.5 29.2173 29.2173 37.5 19 37.5C8.78273 37.5 0.5 29.2173 0.5 19C0.5 8.78273 8.78273 0.5 19 0.5C29.2173 0.5 37.5 8.78273 37.5 19Z" stroke="#F6F6F6"/>
</svg>
