<svg width="38" height="38" viewBox="0 0 38 38" fill="none" xmlns="http://www.w3.org/2000/svg">
<path d="M19 0.5C29.2173 0.5 37.5 8.78273 37.5 19C37.5 29.2173 29.2173 37.5 19 37.5C8.78273 37.5 0.5 29.2173 0.5 19C0.5 8.78273 8.78273 0.5 19 0.5Z" fill="#FFD200" stroke="#F6F6F6"/>
<path d="M19.0004 37C28.9415 37 37.0004 28.9411 37.0004 19C37.0004 9.05887 28.9415 1 19.0004 1C19.0004 1 19 10.0712 19 20.0123C19 29.9534 19.0004 37 19.0004 37Z" fill="#094CA1"/>
<path d="M19 11.5C23.1421 11.5 26.5 14.8579 26.5 19C26.5 23.1421 23.1421 26.5 19 26.5C14.8579 26.5 11.5 23.1421 11.5 19C11.5 14.8579 14.8579 11.5 19 11.5Z" fill="#094CA1" stroke="white"/>
<rect x="20" y="24" width="2" height="10" transform="rotate(180 20 24)" fill="#FFD200"/>
<rect x="23" y="17.75" width="2" height="8" transform="rotate(90 23 17.75)" fill="#FFD200"/>
</svg>
