<svg width="38" height="38" viewBox="0 0 38 38" fill="none" xmlns="http://www.w3.org/2000/svg">
<path d="M19 1C9.05887 1 1 9.05887 1 19C1 28.9411 9.05887 37 19 37C28.9411 37 37 28.9411 37 19C37 9.05887 28.9411 1 19 1Z" fill="white"/>
<path d="M1 19C1 28.9411 9.05887 37 19 37C28.9411 37 37 28.9411 37 19C37 19 27.9288 18.9996 17.9877 18.9996C8.04659 18.9996 1 19 1 19Z" fill="white"/>
<path d="M37.5 19C37.5 29.2173 29.2173 37.5 19 37.5C8.78273 37.5 0.5 29.2173 0.5 19C0.5 8.78273 8.78273 0.5 19 0.5C29.2173 0.5 37.5 8.78273 37.5 19Z" stroke="#F6F6F6"/>
<path d="M36 19C36 28.3888 28.3888 36 19 36C9.61116 36 2 28.3888 2 19C2 9.61116 9.61116 2 19 2C28.3888 2 36 9.61116 36 19Z" stroke="#162577" stroke-width="2"/>
<path d="M9.97777 23.5995L8.50884 22.4926L7.00218 23.5476L7.601 21.8085L6.13207 20.7016L7.97109 20.7337L8.5699 18.9946L9.10766 20.7535L10.9467 20.7856L9.44001 21.8406L9.97777 23.5995Z" fill="#162577"/>
<path d="M14.9778 19.5995L13.5088 18.4926L12.0022 19.5476L12.601 17.8085L11.1321 16.7016L12.9711 16.7337L13.5699 14.9946L14.1077 16.7535L15.9467 16.7856L14.44 17.8406L14.9778 19.5995Z" fill="#162577"/>
<path d="M20.4263 16.5995L18.9573 15.4926L17.4507 16.5476L18.0495 14.8085L16.5806 13.7016L18.4196 13.7337L19.0184 11.9946L19.5561 13.7535L21.3952 13.7856L19.8885 14.8406L20.4263 16.5995Z" fill="#162577"/>
<path d="M25.9778 19.5995L24.5088 18.4926L23.0022 19.5476L23.601 17.8085L22.1321 16.7016L23.9711 16.7337L24.5699 14.9946L25.1077 16.7535L26.9467 16.7856L25.44 17.8406L25.9778 19.5995Z" fill="#162577"/>
<path d="M30.9778 23.5995L29.5088 22.4926L28.0022 23.5476L28.601 21.8085L27.1321 20.7016L28.9711 20.7337L29.5699 18.9946L30.1077 20.7535L31.9467 20.7856L30.44 21.8406L30.9778 23.5995Z" fill="#162577"/>
</svg>
