<svg width="38" height="38" viewBox="0 0 38 38" fill="none" xmlns="http://www.w3.org/2000/svg">
<path d="M19 1.75C28.5269 1.75 36.25 9.47309 36.25 19C36.25 28.5269 28.5269 36.25 19 36.25C9.47309 36.25 1.75 28.5269 1.75 19C1.75 9.47309 9.47309 1.75 19 1.75Z" fill="#24338A" stroke="#FFCF01" stroke-width="1.5"/>
<path d="M26 4.28613V33.7197L24.5 34.2793V3.72168L26 4.28613Z" fill="#FFCF01" stroke="#FFCF01"/>
<rect x="18.5" y="2.5" width="1.5" height="33" fill="#FFCF01" stroke="#FFCF01"/>
<path d="M31.9268 8.14062L31.999 29.4873L30.5 31.4951V7.02441L31.9268 8.14062Z" fill="#FFCF01" stroke="#FFCF01"/>
<path d="M37.5 19C37.5 29.2173 29.2173 37.5 19 37.5C8.78273 37.5 0.5 29.2173 0.5 19C0.5 8.78273 8.78273 0.5 19 0.5C29.2173 0.5 37.5 8.78273 37.5 19Z" stroke="#F6F6F6"/>
<path d="M18.5 36.4932C9.06628 36.2287 1.5 28.4979 1.5 19C1.5 9.50212 9.06629 1.7723 18.5 1.50781V36.4932Z" fill="white" stroke="#24338A"/>
<rect x="10" y="12" width="2" height="14" fill="#1C1E1C"/>
<rect x="6" y="20" width="2" height="10" transform="rotate(-90 6 20)" fill="#1C1E1C"/>
</svg>
