<svg width="38" height="38" viewBox="0 0 38 38" fill="none" xmlns="http://www.w3.org/2000/svg">
<path d="M19 1C9.05887 1 1 9.05887 1 19C1 28.9411 9.05887 37 19 37C28.9411 37 37 28.9411 37 19C37 9.05887 28.9411 1 19 1Z" fill="#011379"/>
<path d="M37.5 19C37.5 29.2173 29.2173 37.5 19 37.5C8.78273 37.5 0.5 29.2173 0.5 19C0.5 8.78273 8.78273 0.5 19 0.5C29.2173 0.5 37.5 8.78273 37.5 19Z" stroke="#F6F6F6"/>
<path d="M18.2394 24.6C11.2121 24.6 7.89369 18.2 7.11288 15C6.52728 20 7.93273 30 18.2394 30C28.5461 30 30.3419 20 29.9515 15C28.9755 18.2 25.2667 24.6 18.2394 24.6Z" fill="white"/>
<path d="M21.9905 16.172L18.7974 13.7659L15.5222 16.0591L16.8239 12.2788L13.6308 9.8726L17.6284 9.94237L18.9301 6.16201L20.099 9.9855L24.0966 10.0553L20.8215 12.3485L21.9905 16.172Z" fill="white"/>
</svg>
