<svg width="38" height="38" viewBox="0 0 38 38" fill="none" xmlns="http://www.w3.org/2000/svg">
<path d="M1 19C1 28.9411 9.05887 37 19 37C28.9411 37 37 28.9411 37 19C37 9.05887 28.9411 1 19 1C9.05887 1 1 9.05887 1 19Z" fill="#004170"/>
<path d="M19.7744 5.95435V6.59106C19.7744 14.9713 23.9752 22.2733 30.2891 26.8586C29.3963 28.2678 28.2023 29.3901 26.832 30.3586C26.7359 26.0633 23.2245 22.7004 18.8125 22.7004C14.3995 22.7004 10.8897 26.1594 10.792 30.3596C9.4294 29.3842 8.23597 28.1934 7.34082 26.8557C13.7516 22.2665 17.8506 14.8697 17.8506 6.59106V5.95435H19.7744Z" fill="#DA291C" stroke="white" stroke-width="0.5"/>
<path d="M37.5 19C37.5 29.2173 29.2173 37.5 19 37.5C8.78273 37.5 0.5 29.2173 0.5 19C0.5 8.78273 8.78273 0.5 19 0.5C29.2173 0.5 37.5 8.78273 37.5 19Z" stroke="#F6F6F6"/>
</svg>
