<svg width="39" height="39" viewBox="0 0 39 39" fill="none" xmlns="http://www.w3.org/2000/svg">
<path d="M19.5 2.25C29.0269 2.25 36.75 9.97309 36.75 19.5C36.75 29.0269 29.0269 36.75 19.5 36.75C9.97309 36.75 2.25 29.0269 2.25 19.5C2.25 9.97309 9.97309 2.25 19.5 2.25Z" fill="#ED1B24" stroke="#FFF704" stroke-width="1.5"/>
<path d="M23.7601 9.14988L28.5 9.14989L15.4272 29.6822L10.7601 29.6822L23.7601 9.14988Z" fill="#E3351C"/>
<path d="M19.5 0.75C29.8553 0.75 38.25 9.14466 38.25 19.5C38.25 29.8553 29.8553 38.25 19.5 38.25C9.14466 38.25 0.75 29.8553 0.75 19.5C0.75 9.14466 9.14466 0.75 19.5 0.75Z" stroke="#F6F6F6" stroke-width="1.5"/>
<path d="M19.5 6.5C26.4036 6.5 32 12.0964 32 19C32 25.9036 26.4036 31.5 19.5 31.5C12.5964 31.5 7 25.9036 7 19C7 12.0964 12.5964 6.5 19.5 6.5Z" fill="#ED1B24" stroke="#FFF704" stroke-width="2"/>
<rect x="18.5" y="7.5" width="2" height="14" fill="#FFF704"/>
<rect x="23.5" y="7.5" width="2" height="10" fill="#FFF704"/>
<rect x="13.5" y="7.5" width="2" height="8" fill="#FFF704"/>
</svg>
