<svg width="39" height="39" viewBox="0 0 39 39" fill="none" xmlns="http://www.w3.org/2000/svg">
<path d="M19.5 2.25C29.0269 2.25 36.75 9.97309 36.75 19.5C36.75 29.0269 29.0269 36.75 19.5 36.75C9.97309 36.75 2.25 29.0269 2.25 19.5C2.25 9.97309 9.97309 2.25 19.5 2.25Z" fill="white" stroke="#CAA356" stroke-width="1.5"/>
<rect x="34.7604" y="13.2553" width="1.3625" height="30.6418" transform="rotate(45 34.7604 13.2553)" stroke="#CAA356"/>
<rect x="31.9116" y="7.75124" width="1.3625" height="34.1679" transform="rotate(45 31.9116 7.75124)" stroke="#CAA356"/>
<path d="M36.6679 21.8005L21.5045 36.7913L19.7906 36.5952L36.3703 20.0155L36.6679 21.8005Z" stroke="#CAA356"/>
<path d="M12.1101 12.4565L13.1345 14.819H14.5288L15.4913 12.4565L16.1038 14.819L18.4663 13.244L16.8913 17.1815L14.5288 16.394H13.7413H12.9538L10.5913 17.1815L9.0163 13.244L11.5595 14.819L12.1101 12.4565Z" fill="#CAA356"/>
<path d="M19.5 0.75C29.8553 0.75 38.25 9.14466 38.25 19.5C38.25 29.8553 29.8553 38.25 19.5 38.25C9.14466 38.25 0.75 29.8553 0.75 19.5C0.75 9.14466 9.14466 0.75 19.5 0.75Z" stroke="#F6F6F6" stroke-width="1.5"/>
</svg>
