<svg width="39" height="39" viewBox="0 0 39 39" fill="none" xmlns="http://www.w3.org/2000/svg">
<path d="M19.5 2.25C29.0269 2.25 36.75 9.97309 36.75 19.5C36.75 29.0269 29.0269 36.75 19.5 36.75C9.97309 36.75 2.25 29.0269 2.25 19.5C2.25 9.97309 9.97309 2.25 19.5 2.25Z" fill="white" stroke="#231F20" stroke-width="1.5"/>
<path d="M23.0755 8.7096L28.1291 8.87435L14.9049 29.7022L9.92902 29.54L23.0755 8.7096Z" fill="#E3351C"/>
<path d="M19.5 0.75C29.8553 0.75 38.25 9.14466 38.25 19.5C38.25 29.8553 29.8553 38.25 19.5 38.25C9.14466 38.25 0.75 29.8553 0.75 19.5C0.75 9.14466 9.14466 0.75 19.5 0.75Z" stroke="#F6F6F6" stroke-width="1.5"/>
</svg>
