<svg width="38" height="38" viewBox="0 0 38 38" fill="none" xmlns="http://www.w3.org/2000/svg">
<path d="M1 19C1 28.9411 9.05887 37 19 37C28.9411 37 37 28.9411 37 19C37 9.05887 28.9411 1 19 1C9.05887 1 1 9.05887 1 19Z" fill="#E31147"/>
<circle cx="19" cy="19" r="11.5" fill="black" stroke="#FAD105"/>
<path d="M19 13.5C22.0376 13.5 24.5 15.9624 24.5 19C24.5 22.0376 22.0376 24.5 19 24.5C15.9624 24.5 13.5 22.0376 13.5 19C13.5 15.9624 15.9624 13.5 19 13.5Z" fill="white" stroke="black"/>
<path d="M37.5 19C37.5 29.2173 29.2173 37.5 19 37.5C8.78273 37.5 0.5 29.2173 0.5 19C0.5 8.78273 8.78273 0.5 19 0.5C29.2173 0.5 37.5 8.78273 37.5 19Z" stroke="#F6F6F6"/>
</svg>
