<svg width="271" height="271" viewBox="0 0 271 271" fill="none" xmlns="http://www.w3.org/2000/svg">
<g clip-path="url(#clip0_114_26)">
<path d="M243.364 233.444C225.003 204.165 206.536 175.004 188.484 146.768L181.273 135.494L188.484 124.219C206.536 95.989 225.003 66.8285 243.364 37.5435L245.479 34.1665L248.104 37.1702C256.997 47.3486 264.462 58.6526 270.291 70.7683L271.002 72.2435L270.132 73.6298C257.121 94.3124 243.945 115.113 230.946 135.494C243.939 155.862 257.115 176.669 270.132 197.358L271.002 198.744L270.291 200.219C264.462 212.335 256.997 223.639 248.104 233.817L245.479 236.821L243.364 233.444Z" fill="white"/>
<path d="M22.8929 233.816C14 223.643 6.5349 212.339 0.710959 200.224L0 198.749L0.870925 197.362C13.8104 176.792 26.9928 155.985 40.0566 135.498C27.0046 115.023 13.8222 94.2221 0.870925 73.6343L0 72.248L0.710959 70.7728C6.54083 58.6571 14 47.359 22.8929 37.1806L25.5175 34.1769L27.6326 37.5539C45.6081 66.2168 64.0752 95.3773 82.5187 124.224L89.729 135.498L82.5187 146.773C64.0752 175.619 45.6081 204.78 27.6326 233.443L25.5175 236.82L22.8929 233.816Z" fill="white"/>
<path d="M233.817 248.101C223.639 256.993 212.334 264.458 200.224 270.282L198.749 270.993L197.363 270.122C176.97 257.296 156.169 244.114 135.503 230.937C115.111 243.942 94.3091 257.118 73.6379 270.122L72.2516 270.993L70.7763 270.282C58.6604 264.452 47.3621 256.993 37.1835 248.101L34.1797 245.476L37.5567 243.361C66.1906 225.404 95.3518 206.937 124.229 188.476L135.503 181.266L146.778 188.476C175.702 206.967 204.857 225.434 233.45 243.361L236.827 245.476L233.823 248.101H233.817Z" fill="white"/>
<path d="M233.442 27.6298C204.938 45.5041 175.777 63.9709 146.77 82.5147L135.495 89.7189L124.227 82.5147C95.8891 64.3975 66.7279 45.9307 37.5489 27.6357L34.1719 25.5207L37.1757 22.8961C47.3483 14.0034 58.6526 6.53849 70.7744 0.708747L72.2497 -0.00219727L73.6361 0.868709C94.2657 13.8494 115.073 27.0255 135.501 40.0536C156.054 26.9426 176.861 13.7664 197.367 0.868709L198.753 -0.00219727L200.228 0.708747C212.344 6.53849 223.643 13.9975 233.821 22.8902L236.825 25.5148L233.448 27.6298H233.442Z" fill="white"/>
</g>
<defs>
<clipPath id="clip0_114_26">
<rect width="271" height="271" fill="white"/>
</clipPath>
</defs>
</svg>
