<svg width="38" height="38" viewBox="0 0 38 38" fill="none" xmlns="http://www.w3.org/2000/svg">
<path d="M36.25 19C36.25 28.5269 28.5269 36.25 19 36.25C9.47309 36.25 1.75 28.5269 1.75 19C1.75 9.47309 9.47309 1.75 19 1.75C28.5269 1.75 36.25 9.47309 36.25 19Z" stroke="#65A60C" stroke-width="1.5"/>
<path d="M29.9518 5L32 7.5H6L8 5H29.9518Z" fill="#65A60C"/>
<path d="M34 11L35 13.5H2.5L3.5 11H34Z" fill="#65A60C"/>
<rect x="35" y="24" width="2.5" height="32" transform="rotate(90 35 24)" fill="#65A60C"/>
<rect x="36" y="17.5" width="2.5" height="34.65" transform="rotate(90 36 17.5)" fill="#65A60C"/>
<path d="M32 30.5L29 33H9L5.8 30.5H32Z" fill="#65A60C"/>
<path d="M19 37.5C8.78273 37.5 0.5 29.2173 0.5 19C0.5 8.78273 8.78273 0.5 19 0.5C29.2173 0.5 37.5 8.78273 37.5 19C37.5 29.2173 29.2173 37.5 19 37.5Z" stroke="#F6F6F6"/>
<path d="M36.25 19C36.25 28.5269 28.5269 36.25 19 36.25C9.47309 36.25 1.75 28.5269 1.75 19C1.75 9.47309 9.47309 1.75 19 1.75C28.5269 1.75 36.25 9.47309 36.25 19Z" fill="#65A60C" fill-opacity="0.83" stroke="#0033A1" stroke-width="1.5"/>
</svg>
