<svg width="38" height="38" viewBox="0 0 38 38" fill="none" xmlns="http://www.w3.org/2000/svg">
<path d="M19 0.5C29.2173 0.5 37.5 8.78273 37.5 19C37.5 29.2173 29.2173 37.5 19 37.5C8.78273 37.5 0.5 29.2173 0.5 19C0.5 8.78273 8.78273 0.5 19 0.5Z" fill="black" stroke="#F6F6F6"/>
<path d="M19.0004 37C28.9415 37 37.0004 28.9411 37.0004 19C37.0004 9.05887 28.9415 1 19.0004 1C19.0004 1 19 10.0712 19 20.0123C19 29.9534 19.0004 37 19.0004 37Z" fill="#E13327"/>
<path d="M27 19C27 23.4183 23.4183 27 19 27C14.5817 27 11 23.4183 11 19C11 14.5817 14.5817 11 19 11C23.4183 11 27 14.5817 27 19Z" fill="#E13327"/>
<path d="M27 19C27 23.4183 23.4183 27 19 27C19 27 19 23.4183 19 19C19 14.5817 19 11 19 11C23.4183 11 27 14.5817 27 19Z" fill="black"/>
</svg>
