<svg width="39" height="39" viewBox="0 0 39 39" fill="none" xmlns="http://www.w3.org/2000/svg">
<path d="M36.75 19.5C36.75 29.0269 29.0269 36.75 19.5 36.75C9.97309 36.75 2.25 29.0269 2.25 19.5C2.25 9.97309 9.97309 2.25 19.5 2.25C29.0269 2.25 36.75 9.97309 36.75 19.5Z" fill="#009FE3" stroke="#DC2F34" stroke-width="1.5"/>
<rect x="25.7448" y="34.7604" width="1.3625" height="30.6418" transform="rotate(135 25.7448 34.7604)" stroke="#DC2F34"/>
<rect x="31.2487" y="31.9117" width="1.3625" height="34.1679" transform="rotate(135 31.2487 31.9117)" stroke="#DC2F34"/>
<path d="M17.1995 36.668L2.20868 21.5046L2.40479 19.7907L18.9845 36.3704L17.1995 36.668Z" stroke="#DC2F34"/>
<path d="M38.25 19.5C38.25 29.8553 29.8553 38.25 19.5 38.25C9.14466 38.25 0.75 29.8553 0.75 19.5C0.75 9.14466 9.14466 0.75 19.5 0.75C29.8553 0.75 38.25 9.14466 38.25 19.5Z" stroke="#F6F6F6" stroke-width="1.5"/>
<path d="M24.5 9C26.433 9 28 10.567 28 12.5C28 14.433 26.433 16 24.5 16C22.567 16 21 14.433 21 12.5C21 10.567 22.567 9 24.5 9Z" fill="#004996" stroke="white"/>
</svg>
