<svg width="38" height="38" viewBox="0 0 38 38" fill="none" xmlns="http://www.w3.org/2000/svg">
<path d="M19 1.75C28.5269 1.75 36.25 9.47309 36.25 19C36.25 28.5269 28.5269 36.25 19 36.25C9.47309 36.25 1.75 28.5269 1.75 19C1.75 9.47309 9.47309 1.75 19 1.75Z" fill="white" stroke="#EB172B" stroke-width="1.5"/>
<path d="M7 30.959L5.5 29.7588V8.24023L7 7.04004V30.959Z" fill="#EB172B" stroke="#EB172B"/>
<rect x="11.5" y="3.5" width="1.5" height="31" fill="#EB172B" stroke="#EB172B"/>
<rect x="24.5" y="3.5" width="1.5" height="31" fill="#EB172B" stroke="#EB172B"/>
<rect x="18" y="2.5" width="1.5" height="33.65" fill="#EB172B" stroke="#EB172B"/>
<path d="M32 8.70703V29.793L30.5 31.293V7.20703L32 8.70703Z" fill="#EB172B" stroke="#EB172B"/>
<path d="M37.5 19C37.5 29.2173 29.2173 37.5 19 37.5C8.78273 37.5 0.5 29.2173 0.5 19C0.5 8.78273 8.78273 0.5 19 0.5C29.2173 0.5 37.5 8.78273 37.5 19Z" stroke="#F6F6F6"/>
</svg>
