<svg width="38" height="38" viewBox="0 0 38 38" fill="none" xmlns="http://www.w3.org/2000/svg">
<path d="M19 37C28.9411 37 37 28.9411 37 19C37 9.05887 28.9411 1 19 1C9.05887 1 1 9.05887 1 19C1 28.9411 9.05887 37 19 37Z" fill="#881F19" fill-opacity="0.87"/>
<path d="M37 19C37 9.05886 28.9411 0.999989 19 0.999989C9.05887 0.999989 1 9.05886 1 19C1 19 10.0712 19.0004 20.0123 19.0004C29.9534 19.0004 37 19 37 19Z" fill="#881F19"/>
<path d="M0.5 19C0.5 8.78273 8.78273 0.5 19 0.5C29.2173 0.5 37.5 8.78273 37.5 19C37.5 29.2173 29.2173 37.5 19 37.5C8.78273 37.5 0.5 29.2173 0.5 19Z" stroke="#F6F6F6"/>
<path d="M1.5 19C1.5 9.33502 9.33502 1.5 19 1.5C28.665 1.5 36.5 9.33502 36.5 19C36.5 28.665 28.665 36.5 19 36.5C9.33502 36.5 1.5 28.665 1.5 19Z" stroke="#ECB215"/>
<path d="M11 21L27 21" stroke="#5386BC" stroke-linecap="round"/>
<path d="M9 14L11 16" stroke="white" stroke-width="2" stroke-linecap="round"/>
<path d="M27 16L29 14" stroke="white" stroke-width="2" stroke-linecap="round"/>
<path d="M11 16L27 16" stroke="white" stroke-width="2" stroke-linecap="round"/>
</svg>
