<svg width="38" height="38" viewBox="0 0 38 38" fill="none" xmlns="http://www.w3.org/2000/svg">
<path d="M1 19C1 28.9411 9.05887 37 19 37C28.9411 37 37 28.9411 37 19C37 19 27.9288 18.9996 17.9877 18.9996C8.04659 18.9996 1 19 1 19Z" fill="#7F7F7F"/>
<path d="M37.5 19C37.5 29.2173 29.2173 37.5 19 37.5C8.78273 37.5 0.5 29.2173 0.5 19C0.5 8.78273 8.78273 0.5 19 0.5C29.2173 0.5 37.5 8.78273 37.5 19Z" stroke="#F6F6F6"/>
<path d="M36 19C36 28.3888 28.3888 36 19 36C9.61116 36 2 28.3888 2 19C2 9.61116 9.61116 2 19 2C28.3888 2 36 9.61116 36 19Z" stroke="#8B7D37" stroke-width="2"/>
<path d="M8.5 24L19 11L29.5 24" stroke="white" stroke-width="2" stroke-linecap="round"/>
<path d="M12.5 19L19 11L25.5 19" stroke="black" stroke-width="2" stroke-linecap="square"/>
</svg>
