<svg width="38" height="38" viewBox="0 0 38 38" fill="none" xmlns="http://www.w3.org/2000/svg">
<path d="M19 0.5C29.2173 0.5 37.5 8.78273 37.5 19C37.5 29.2173 29.2173 37.5 19 37.5C8.78273 37.5 0.5 29.2173 0.5 19C0.5 8.78273 8.78273 0.5 19 0.5Z" fill="#013F8A" fill-opacity="0.78" stroke="#F6F6F6"/>
<path d="M19.0004 37C28.9415 37 37.0004 28.9411 37.0004 19C37.0004 9.05887 28.9415 1 19.0004 1C19.0004 1 19 10.0712 19 20.0123C19 29.9534 19.0004 37 19.0004 37Z" fill="#013F8A"/>
<rect x="11.2219" y="19" width="11" height="11" transform="rotate(-45 11.2219 19)" fill="white" stroke="#FFC000"/>
</svg>
