<svg width="38" height="38" viewBox="0 0 38 38" fill="none" xmlns="http://www.w3.org/2000/svg">
<path d="M19 1.75C28.5269 1.75 36.25 9.47309 36.25 19C36.25 28.5269 28.5269 36.25 19 36.25C9.47309 36.25 1.75 28.5269 1.75 19C1.75 9.47309 9.47309 1.75 19 1.75Z" fill="#E83423" stroke="#FFDF1C" stroke-width="1.5"/>
<path d="M11.5 3.49957V33.69L7.5 31.69V6.64606C7.52088 6.62498 7.5443 6.60183 7.56934 6.57672C7.70396 6.44171 7.8967 6.25093 8.12793 6.02887C8.59192 5.58328 9.20575 5.01681 9.81543 4.52203C10.4413 4.01416 11.0088 3.62724 11.3906 3.48785C11.4342 3.47194 11.4693 3.4615 11.4971 3.45465C11.4977 3.4679 11.5 3.48276 11.5 3.49957Z" fill="#FFDF1C" stroke="#FFDF1C"/>
<rect x="17" y="2.5" width="3.725" height="33.65" fill="#FFDF1C" stroke="#FFDF1C"/>
<path d="M26.6924 3.48297C26.8163 3.49435 27.0056 3.55618 27.2588 3.69196C27.5046 3.82377 27.7773 4.0064 28.0605 4.22125C28.6269 4.65081 29.2002 5.18091 29.6367 5.60895C29.8538 5.82182 30.0349 6.00737 30.1611 6.13922C30.1834 6.16244 30.2039 6.18395 30.2227 6.20367L30.001 30.8257C29.976 30.8576 29.9472 30.8951 29.9141 30.9371C29.7927 31.0906 29.6195 31.3079 29.4111 31.5611C28.993 32.0692 28.4395 32.7177 27.8896 33.2896C27.3384 33.863 26.8387 34.3058 26.5 34.4898V3.99957C26.5001 3.64991 26.5694 3.52463 26.5928 3.49567C26.5992 3.48774 26.6004 3.48764 26.6025 3.48688C26.6096 3.48444 26.636 3.47782 26.6924 3.48297Z" fill="#FFDF1C" stroke="#FFDF1C"/>
<path d="M12.3477 15.6689C12.6556 16.4316 12.9975 17.092 13.5039 17.9443L13.5342 17.9951L13.5674 18.043C14.3947 19.2157 15.0255 19.8576 16.2793 20.5859L17.6992 21.4111L18.207 20.3193L18.2305 20.3496L19.0176 19.2295L19.2607 19.5342C19.3452 19.7448 19.4396 19.9535 19.5469 20.166L20.3164 21.6914L21.7295 20.7305C22.2728 20.3612 22.71 20.0207 23.1055 19.6631C22.824 20.203 22.6454 20.7201 22.5098 21.3066C22.2482 21.3511 21.994 21.4147 21.7412 21.5C21.1168 21.7108 20.5861 22.0299 20.0654 22.3701L19.9023 22.4766L19.7715 22.6221C19.5054 22.9176 19.2774 23.1976 19.0771 23.4727C18.9772 23.3283 18.8708 23.1794 18.7568 23.0244L18.6348 22.8594L18.4736 22.7324C17.7879 22.1945 17.077 21.7709 16.2266 21.6221C15.9537 21.5744 15.6861 21.5613 15.4238 21.5693C15.3221 21.2325 15.1977 20.8857 15.0342 20.4736L14.9639 20.2949L14.8506 20.1406L14.667 19.8994C14.2295 19.3474 13.7227 18.8768 13.0469 18.5811C12.7363 18.4452 12.4201 18.3616 12.1035 18.3105C12.0293 18.0418 11.9355 17.7771 11.8145 17.5117C11.5845 17.0078 11.2797 16.5503 10.918 16.0869C11.4631 15.9554 11.9094 15.8254 12.3477 15.6689ZM26.4014 15.0352C26.6894 15.1299 26.9879 15.2186 27.3086 15.3193C26.8936 15.845 26.5628 16.3689 26.3418 16.9502C26.2744 17.1274 26.2206 17.3034 26.1768 17.4785C26.0384 17.4889 25.8987 17.5061 25.7578 17.5352C25.3357 17.6221 24.9655 17.7865 24.6328 17.9873C24.7036 17.8981 24.7777 17.8077 24.8516 17.7129L24.8926 17.6602L24.9277 17.6045C25.5837 16.5886 26.0133 15.8468 26.4014 15.0352Z" fill="black" stroke="black" stroke-width="3"/>
<path d="M37.5 19C37.5 29.2173 29.2173 37.5 19 37.5C8.78273 37.5 0.5 29.2173 0.5 19C0.5 8.78273 8.78273 0.5 19 0.5C29.2173 0.5 37.5 8.78273 37.5 19Z" stroke="#F6F6F6"/>
</svg>
