<svg width="38" height="38" viewBox="0 0 38 38" fill="none" xmlns="http://www.w3.org/2000/svg">
<path d="M19 0.5C29.2173 0.5 37.5 8.78273 37.5 19C37.5 29.2173 29.2173 37.5 19 37.5C8.78273 37.5 0.5 29.2173 0.5 19C0.5 8.78273 8.78273 0.5 19 0.5Z" fill="#1D9053" stroke="#F6F6F6"/>
<path d="M19 37C28.9411 37 37 28.9411 37 19C37 9.05887 28.9411 1 19 1C19 1 18.9996 10.0712 18.9996 20.0123C18.9996 29.9534 19 37 19 37Z" fill="#434343" fill-opacity="0.31"/>
<path d="M20.084 15.8906C20.084 15.9844 20.084 16.0781 20.084 16.1719C20.084 16.2539 20.0723 16.3359 20.0488 16.418C20.2246 17.0508 20.3828 17.6895 20.5234 18.334C20.6758 18.9668 20.8223 19.5996 20.9629 20.2324C21.0332 19.5176 21.0918 18.8027 21.1387 18.0879C21.1973 17.3613 21.2266 16.6406 21.2266 15.9258C21.2266 15.2227 21.2031 14.5078 21.1562 13.7812C21.1094 13.043 20.9922 12.3398 20.8047 11.6719L20.7344 11.4258C20.7109 11.3672 20.6934 11.3027 20.6816 11.2324C20.6699 11.1621 20.6641 11.0918 20.6641 11.0215C20.6641 10.8926 20.6934 10.793 20.752 10.7227C20.8223 10.6406 20.9043 10.582 20.998 10.5469C21.0918 10.5117 21.1973 10.4883 21.3145 10.4766C21.4316 10.4648 21.5371 10.459 21.6309 10.459C21.9238 10.459 22.2285 10.4941 22.5449 10.5645C22.7559 10.623 22.9258 10.7109 23.0547 10.8281C23.1836 10.9336 23.2773 11.0625 23.3359 11.2148C23.4062 11.3672 23.4531 11.5371 23.4766 11.7246C23.5 11.9004 23.5176 12.082 23.5293 12.2695C23.5293 12.293 23.5293 12.3164 23.5293 12.3398C23.541 12.3633 23.5469 12.3867 23.5469 12.4102C23.6055 12.9258 23.6465 13.4473 23.6699 13.9746C23.7051 14.4902 23.7227 15 23.7227 15.5039C23.7227 17.0742 23.6289 18.6387 23.4414 20.1973C23.2656 21.7559 23.0488 23.3027 22.791 24.8379C22.7559 25.0723 22.7031 25.3125 22.6328 25.5586C22.5742 25.8047 22.4863 26.0332 22.3691 26.2441C22.252 26.4551 22.0996 26.6309 21.9121 26.7715C21.7246 26.9004 21.4902 26.9648 21.209 26.9648C20.8926 26.9648 20.6348 26.8945 20.4355 26.7539C20.2363 26.6016 20.0723 26.4141 19.9434 26.1914C19.8262 25.957 19.7383 25.6992 19.6797 25.418C19.6211 25.1367 19.5742 24.8613 19.5391 24.5918C19.5156 24.4629 19.4922 24.3457 19.4688 24.2402C19.457 24.1348 19.4395 24.0352 19.416 23.9414L18.9238 21.7617C18.8301 22.0898 18.7012 22.5059 18.5371 23.0098C18.3848 23.502 18.2148 24 18.0273 24.5039C17.8516 25.0078 17.6699 25.4648 17.4824 25.875C17.3066 26.2852 17.1602 26.5664 17.043 26.7188C16.9141 26.8711 16.75 26.9883 16.5508 27.0703C16.3516 27.1641 16.1523 27.2109 15.9531 27.2109C15.6016 27.2109 15.2969 27.0996 15.0391 26.877C14.8047 26.6426 14.6523 26.373 14.582 26.0684C14.5117 25.7637 14.459 25.459 14.4238 25.1543C14.4238 25.1309 14.418 25.1016 14.4062 25.0664C14.4062 25.0312 14.4062 25.002 14.4062 24.9785C14.2305 23.6895 14.1016 22.3828 14.0195 21.0586C13.9375 19.7227 13.8965 18.3926 13.8965 17.0684V14.1504C13.8965 14.0449 13.9023 13.9336 13.9141 13.8164C13.9258 13.6992 13.9492 13.5938 13.9844 13.5C14.0312 13.3945 14.0957 13.3125 14.1777 13.2539C14.2715 13.1953 14.4004 13.166 14.5645 13.166C14.998 13.166 15.3555 13.2949 15.6367 13.5527C15.918 13.8105 16.0762 14.1504 16.1113 14.5723C16.1465 15.1348 16.1699 15.7031 16.1816 16.2773C16.2051 16.8516 16.2227 17.4199 16.2344 17.9824C16.2461 18.627 16.252 19.2539 16.252 19.8633C16.2637 20.4609 16.3047 21.0938 16.375 21.7617C16.5156 21.3047 16.6504 20.8301 16.7793 20.3379C16.9082 19.8457 17.0195 19.3477 17.1133 18.8438C17.2188 18.3398 17.3008 17.8418 17.3594 17.3496C17.4297 16.8457 17.4648 16.3594 17.4648 15.8906C17.4648 15.832 17.459 15.7852 17.4473 15.75C17.4473 15.7031 17.4473 15.6504 17.4473 15.5918C17.4355 15.5332 17.4297 15.4746 17.4297 15.416C17.4297 15.3574 17.4297 15.2988 17.4297 15.2402C17.4297 14.9473 17.4941 14.7305 17.623 14.5898C17.752 14.4492 17.9746 14.3789 18.291 14.3789C18.4082 14.3789 18.5488 14.3965 18.7129 14.4316C18.8887 14.4668 19.0586 14.5195 19.2227 14.5898C19.3984 14.6602 19.5566 14.748 19.6973 14.8535C19.8379 14.959 19.9316 15.0762 19.9785 15.2051H19.9609C20.0195 15.3223 20.0547 15.4336 20.0664 15.5391C20.0781 15.6445 20.084 15.7617 20.084 15.8906Z" fill="white"/>
</svg>
