<svg width="38" height="38" viewBox="0 0 38 38" fill="none" xmlns="http://www.w3.org/2000/svg">
<path d="M19 37C28.9411 37 37 28.9411 37 19C37 9.05887 28.9411 1 19 1C9.05887 1 1 9.05887 1 19C1 28.9411 9.05887 37 19 37Z" fill="#65B32E"/>
<path d="M19 37C28.9411 37 37 28.9411 37 19C37 9.05887 28.9411 1 19 1C19 1 18.9996 10.0712 18.9996 20.0123C18.9996 29.9534 19 37 19 37Z" fill="white"/>
<path d="M24.162 16.998V18.546C24.162 19.986 24.084 20.88 23.928 21.228C23.784 21.576 23.328 22.164 22.56 22.992C21.792 23.808 21.228 24.216 20.868 24.216C20.436 24.216 19.734 23.538 18.762 22.182C17.79 23.538 17.088 24.216 16.656 24.216C16.296 24.216 15.726 23.802 14.946 22.974C14.178 22.146 13.722 21.546 13.578 21.174C13.434 20.802 13.362 19.926 13.362 18.546V14.298H15.738V18.546C15.738 19.806 15.78 20.55 15.864 20.778C15.948 21.006 16.074 21.234 16.242 21.462C16.41 21.678 16.548 21.786 16.656 21.786C16.764 21.786 16.896 21.678 17.052 21.462C17.22 21.234 17.346 21.012 17.43 20.796C17.526 20.58 17.574 20.046 17.574 19.194V14.298H19.95V18.546C19.95 19.806 19.992 20.55 20.076 20.778C20.16 21.006 20.286 21.234 20.454 21.462C20.622 21.678 20.76 21.786 20.868 21.786C20.976 21.786 21.108 21.678 21.264 21.462C21.432 21.234 21.558 21.012 21.642 20.796C21.738 20.58 21.786 19.83 21.786 18.546V17.772C21.786 16.74 21.546 15.972 21.066 15.468L22.866 14.082C23.73 14.766 24.162 15.738 24.162 16.998Z" fill="black"/>
<path d="M37.5 19C37.5 29.2173 29.2173 37.5 19 37.5C8.78273 37.5 0.5 29.2173 0.5 19C0.5 8.78273 8.78273 0.5 19 0.5C29.2173 0.5 37.5 8.78273 37.5 19Z" stroke="#F6F6F6"/>
</svg>
