<svg width="38" height="38" viewBox="0 0 38 38" fill="none" xmlns="http://www.w3.org/2000/svg">
<path d="M19 1C9.05887 1 1 9.05887 1 19C1 28.9411 9.05887 37 19 37C28.9411 37 37 28.9411 37 19C37 9.05887 28.9411 1 19 1Z" fill="white"/>
<path d="M20.0083 0.999878C1.49996 0.999878 -0.411543 16.5 2.00001 25.5L18.5 14.5L36 25.9999C37.9999 24 38.5 0.999878 20.0083 0.999878Z" fill="#18563E" stroke="#18563E"/>
<path d="M3.5 26L18.5 15L34.5 26" stroke="#D2222F" stroke-width="3" stroke-linecap="square"/>
<path d="M37.5 19C37.5 29.2173 29.2173 37.5 19 37.5C8.78273 37.5 0.5 29.2173 0.5 19C0.5 8.78273 8.78273 0.5 19 0.5C29.2173 0.5 37.5 8.78273 37.5 19Z" stroke="#F6F6F6"/>
</svg>
